# Blender v2.78 (sub 0) OBJ File: 'Bed.blend'
# www.blender.org
o Cube
v 2.490624 0.000000 1.500000
v -0.509374 0.000000 1.500000
v -0.509374 0.000000 -0.500000
v 2.490625 0.000000 -0.500000
v 2.490624 0.960590 1.500000
v -0.509375 1.154170 1.499999
v -0.509373 1.154170 -0.500000
v 2.490625 0.960590 -0.500000
v 2.115625 0.000000 1.500000
v 2.115625 0.000000 -0.500000
v 2.115624 0.960590 1.500000
v 2.115625 0.960590 -0.500000
v -0.096874 0.000000 1.500000
v -0.096875 1.154170 1.500000
v -0.096874 0.000000 -0.500000
v -0.096874 1.154170 -0.500000
v 2.115625 0.734140 -0.500000
v 2.115624 0.734140 1.500000
v -0.096874 0.734140 -0.500000
v -0.096875 0.734140 1.500000
v -0.096874 0.494053 -0.500000
v -0.096875 0.494053 1.500000
v 2.115624 0.494053 1.500000
v 2.115625 0.494053 -0.500000
v -0.096875 1.154170 1.000000
v -0.096874 1.154170 -0.000000
v 0.248482 0.734140 1.500000
v 0.012171 1.267001 1.000000
v 0.012172 1.267001 -0.000000
v 0.391722 0.734141 1.000000
v 0.391723 0.734141 -0.000000
v 0.206004 0.734140 -0.000000
v 0.206004 0.734140 1.000000
vt 0.2951 0.3234
vt 0.0001 0.2499
vt 0.3404 0.2864
vt 0.0373 0.6209
vt 0.3055 0.5858
vt 0.3399 0.6209
vt 0.6978 0.3905
vt 0.6600 0.1145
vt 0.6962 0.0681
vt 0.0373 0.7480
vt 0.3399 0.7480
vt 0.3959 0.0983
vt 0.6509 0.3443
vt 0.3674 0.3905
vt 0.4139 0.3544
vt 0.0733 0.5747
vt 0.3587 0.8670
vt 0.8255 0.8168
vt 0.9999 0.8670
vt 0.0269 0.0001
vt 0.0569 0.3088
vt 0.3674 0.6330
vt 0.6978 0.6330
vt 0.4265 0.1286
vt 0.3891 0.0303
vt 0.1745 0.7985
vt 0.6236 0.8224
vt 0.3764 0.7930
vt 0.0001 0.7483
vt 0.6413 0.7483
vt 0.7133 0.2420
vt 0.7019 0.2890
vt 0.6981 0.3165
vt 0.7015 0.4077
vt 0.7634 0.4338
vt 0.7634 0.0015
vt 0.7068 0.0001
vt 0.7310 0.1107
vt 0.3671 0.0366
vt 0.6893 0.0001
vn 0.0000 -1.0000 0.0000
vn 0.0000 1.0000 -0.0000
vn 0.0000 -0.0000 1.0000
vn 1.0000 0.0000 0.0000
vn 0.0000 -0.0000 -1.0000
vn -1.0000 0.0000 -0.0000
vn -0.7191 0.6949 -0.0000
vn 0.8145 0.5802 0.0000
vn -0.8111 -0.5849 -0.0000
s off
f 2/1/1 15/2/1 13/3/1
f 16/4/2 6/5/2 14/6/2
f 9/7/3 5/8/3 11/9/3
f 19/10/4 14/6/4 20/11/4
f 5/8/2 12/12/2 11/9/2
f 1/13/1 10/14/1 4/15/1
f 15/2/5 7/16/5 16/4/5
f 17/17/6 23/18/6 18/19/6
f 19/20/4 13/3/4 15/2/4
f 3/21/6 6/5/6 7/16/6
f 17/22/6 9/7/6 18/23/6
f 8/24/4 1/13/4 4/15/4
f 2/1/3 14/6/3 6/5/3
f 17/25/6 11/9/6 12/12/6
f 21/26/1 23/18/1 22/27/1
f 24/28/5 19/29/5 17/17/5
f 20/30/4 21/26/4 19/29/4
f 22/27/3 18/19/3 20/30/3
f 20/30/2 17/17/2 19/29/2
f 10/14/5 8/24/5 4/15/5
f 29/31/7 25/32/7 28/33/7
f 32/34/5 29/31/5 31/35/5
f 30/36/8 29/31/8 28/33/8
f 33/37/3 28/33/3 25/32/3
f 26/38/9 33/37/9 25/32/9
f 2/1/1 3/21/1 15/2/1
f 16/4/2 7/16/2 6/5/2
f 9/7/3 1/13/3 5/8/3
f 19/10/4 16/4/4 14/6/4
f 5/8/2 8/24/2 12/12/2
f 1/13/1 9/7/1 10/14/1
f 15/2/5 3/21/5 7/16/5
f 17/17/6 24/28/6 23/18/6
f 19/20/4 20/39/4 13/3/4
f 3/21/6 2/1/6 6/5/6
f 17/22/6 10/14/6 9/7/6
f 8/24/4 5/8/4 1/13/4
f 2/1/3 13/3/3 14/6/3
f 17/25/6 18/40/6 11/9/6
f 21/26/1 24/28/1 23/18/1
f 24/28/5 21/26/5 19/29/5
f 20/30/4 22/27/4 21/26/4
f 22/27/3 23/18/3 18/19/3
f 20/30/2 18/19/2 17/17/2
f 10/14/5 12/12/5 8/24/5
f 29/31/7 26/38/7 25/32/7
f 32/34/5 26/38/5 29/31/5
f 30/36/8 31/35/8 29/31/8
f 33/37/3 30/36/3 28/33/3
f 26/38/9 32/34/9 33/37/9
l 14 25
l 20 27
l 16 26
