# Blender v2.78 (sub 0) OBJ File: ''
# www.blender.org
o Cube
v 0.500000 0.000000 -1.499999
v 0.500000 0.000000 1.499999
v -0.500000 0.000000 1.499999
v -0.500000 0.000000 -1.500000
v 0.500000 2.000000 -1.499998
v 0.499999 2.000000 1.500000
v -0.500000 2.000000 1.499999
v -0.500000 2.000000 -1.499999
v 0.500000 0.000000 0.999999
v 0.500000 0.000000 -0.999999
v 0.500000 1.750000 -0.999999
v 0.500000 1.750000 0.999999
v 0.500000 1.750000 1.500000
v -0.500000 1.750000 1.499999
v -0.500000 1.750000 -0.999999
v -0.500000 1.750000 0.999999
v -0.500000 0.000000 0.999999
v -0.500000 0.000000 -0.999999
v 0.500000 1.750000 -1.499999
v -0.500000 1.750000 -1.499999
vt 0.6854 0.8588
vt 0.4174 0.2869
vt 0.9141 0.1727
vt 0.3933 0.2968
vt 0.3691 0.0001
vt 0.1680 0.7459
vt 0.4311 0.5110
vt 0.2718 0.5139
vt 0.0390 0.2747
vt 0.3258 0.4336
vt 0.3738 0.2890
vt 0.3357 0.1180
vt 0.2113 0.6262
vt 0.2472 0.5891
vt 0.2936 0.5455
vt 0.3486 0.4167
vt 0.2761 0.5624
vt 0.0001 0.2044
vt 0.0001 0.5481
vt 0.9999 0.2013
vt 0.7712 0.8874
vt 0.3990 0.5103
vt 0.0378 0.5161
vt 0.4107 0.2962
vn 0.0000 1.0000 0.0000
vn -0.0000 -0.0000 1.0000
vn 0.0000 0.0000 -1.0000
vn 0.0000 -1.0000 0.0000
vn -1.0000 0.0000 -0.0000
vn 1.0000 0.0000 0.0000
s off
f 5/1/1 7/2/1 6/3/1
f 6/3/2 3/4/2 2/5/2
f 1/6/3 8/7/3 5/1/3
f 15/8/4 12/9/4 16/10/4
f 17/11/3 12/9/3 9/12/3
f 10/13/2 15/8/2 18/14/2
f 4/15/4 10/13/4 18/14/4
f 17/11/4 2/5/4 3/4/4
f 14/16/5 17/11/5 3/4/5
f 20/17/5 18/14/5 15/8/5
f 2/5/6 12/9/6 13/18/6
f 19/19/6 10/13/6 1/6/6
f 5/1/6 13/20/6 19/21/6
f 20/22/5 7/2/5 8/7/5
f 5/1/1 8/7/1 7/2/1
f 6/3/2 7/2/2 3/4/2
f 1/6/3 4/15/3 8/7/3
f 15/8/4 11/23/4 12/9/4
f 17/11/3 16/10/3 12/9/3
f 10/13/2 11/23/2 15/8/2
f 4/15/4 1/6/4 10/13/4
f 17/11/4 9/12/4 2/5/4
f 14/16/5 16/10/5 17/11/5
f 20/17/5 4/15/5 18/14/5
f 2/5/6 9/12/6 12/9/6
f 19/19/6 11/23/6 10/13/6
f 5/1/6 6/3/6 13/20/6
f 20/22/5 14/24/5 7/2/5
