# Blender v2.78 (sub 0) OBJ File: 'ComputerDesk.blend'
# www.blender.org
o Cube
v 0.500000 0.000000 -1.499999
v 0.500000 0.000000 1.499999
v -0.500000 0.000000 1.499999
v -0.500000 0.000000 -1.500000
v 0.500000 1.574593 -1.499998
v 0.499999 1.574593 1.500000
v -0.500000 1.574593 1.499999
v -0.500000 1.574593 -1.499999
v 0.500000 0.000000 0.999999
v 0.500000 0.000000 -0.999999
v 0.500000 1.324593 -0.999999
v 0.500000 1.324593 0.999999
v 0.500000 1.324593 1.500000
v -0.500000 1.324593 1.499999
v -0.500000 1.324593 -0.999999
v -0.500000 1.324593 0.999999
v -0.500000 0.000000 0.999999
v -0.500000 0.000000 -0.999999
v 0.500000 1.324593 -1.499999
v -0.500000 1.324593 -1.499999
vt 0.9482 0.4871
vt 0.0334 0.2446
vt 0.3602 0.0736
vt 0.1338 0.2865
vt 0.1037 0.1798
vt 0.5736 0.7418
vt 0.4599 0.4743
vt 0.2409 0.4561
vt 0.0637 0.4588
vt 0.1921 0.4093
vt 0.1560 0.3054
vt 0.0911 0.2557
vt 0.3762 0.5076
vt 0.2089 0.6500
vt 0.3768 0.5260
vt 0.4764 0.7004
vt 0.1476 0.3783
vt 0.2455 0.4636
vt 0.0001 0.4327
vt 0.2089 0.7418
vt 0.4119 0.0001
vt 0.9999 0.4136
vt 0.4374 0.4468
vt 0.1658 0.2942
vn 0.0000 1.0000 0.0000
vn -0.0000 -0.0000 1.0000
vn 0.0000 0.0000 -1.0000
vn 0.0000 -1.0000 0.0000
vn -1.0000 0.0000 0.0000
vn 1.0000 0.0000 0.0000
s off
f 5/1/1 7/2/1 6/3/1
f 6/3/2 3/4/2 2/5/2
f 1/6/3 8/7/3 5/1/3
f 15/8/4 12/9/4 16/10/4
f 17/11/3 12/9/3 9/12/3
f 18/13/2 11/14/2 15/8/2
f 4/15/4 10/16/4 18/13/4
f 17/11/4 2/5/4 3/4/4
f 16/10/5 3/4/5 14/17/5
f 20/18/5 18/13/5 15/8/5
f 2/5/6 12/9/6 13/19/6
f 11/14/6 1/6/6 19/20/6
f 5/1/6 13/21/6 19/22/6
f 20/23/5 7/2/5 8/7/5
f 5/1/1 8/7/1 7/2/1
f 6/3/2 7/2/2 3/4/2
f 1/6/3 4/15/3 8/7/3
f 15/8/4 11/14/4 12/9/4
f 17/11/3 16/10/3 12/9/3
f 18/13/2 10/16/2 11/14/2
f 4/15/4 1/6/4 10/16/4
f 17/11/4 9/12/4 2/5/4
f 16/10/5 17/11/5 3/4/5
f 20/18/5 4/15/5 18/13/5
f 2/5/6 9/12/6 12/9/6
f 11/14/6 10/16/6 1/6/6
f 5/1/6 6/3/6 13/21/6
f 20/23/5 14/24/5 7/2/5
