# Blender v2.78 (sub 0) OBJ File: 'CubePerson.blend'
# www.blender.org
o Cube.001
v 0.160163 0.016842 0.291794
v -0.160163 0.016842 0.078764
v 0.160163 0.016842 0.078764
v 0.160163 0.755468 0.078764
v -0.160163 0.755468 0.291794
v 0.160163 0.755468 0.291794
v -0.160163 0.016842 0.291794
v -0.160163 0.755468 0.078764
v 0.173506 2.054883 -0.212639
v 0.173506 2.477084 0.212640
v 0.173506 2.054883 0.212639
v 0.225313 1.977779 0.346177
v -0.282468 0.862579 0.346177
v 0.225313 0.862579 0.346177
v -0.246763 2.054883 -0.212639
v -0.246763 2.054883 0.212639
v 0.225313 0.862579 -0.346176
v 0.225313 1.977779 -0.346176
v -0.282468 1.977779 0.346177
v 0.078244 1.001261 0.607450
v -0.242082 1.001262 0.394420
v 0.078244 1.001262 0.394420
v -0.242082 1.902213 0.394420
v 0.078244 1.902213 0.607450
v 0.078244 1.902213 0.394420
v -0.242082 1.001261 0.607449
v -0.242082 1.902213 0.607449
v 0.173506 2.477084 -0.212639
v -0.246763 2.477084 0.212640
v -0.246763 2.477084 -0.212639
v -0.282468 0.862579 -0.346176
v 0.160163 0.016842 -0.078764
v -0.160163 0.016842 -0.291794
v 0.160163 0.016842 -0.291794
v 0.160163 0.755468 -0.291793
v -0.160163 0.755468 -0.078764
v 0.160163 0.755468 -0.078764
v -0.160163 0.016842 -0.078764
v -0.160163 0.755468 -0.291793
v 0.078244 1.001262 -0.394420
v -0.242082 1.001262 -0.607449
v 0.078244 1.001262 -0.607450
v 0.078244 1.902213 -0.394420
v -0.242082 1.902213 -0.607449
v -0.242082 1.902213 -0.394420
v 0.078244 1.902213 -0.607449
v -0.242082 1.001262 -0.394420
v -0.282468 1.977779 -0.346176
vt 0.6901 0.5598
vt 0.6397 0.5001
vt 0.6397 0.5598
vt 0.6397 0.2828
vt 0.6901 0.3425
vt 0.6901 0.2828
vt 0.6901 0.1252
vt 0.6397 0.1252
vt 0.7498 0.1252
vt 0.6901 0.5001
vt 0.5800 0.2828
vt 0.7550 0.6252
vt 0.6544 0.7153
vt 0.6544 0.6252
vt 0.4210 0.5174
vt 0.5263 0.7553
vt 0.4210 0.7553
vt 0.7550 0.8973
vt 0.6544 0.9893
vt 0.6544 0.8973
vt 0.2572 0.7553
vt 0.2572 0.5174
vt 0.4210 0.4121
vt 0.1100 0.6810
vt 0.0596 0.6213
vt 0.0596 0.6810
vt 0.0596 0.4291
vt 0.1100 0.3694
vt 0.0596 0.3694
vt 0.1100 0.1772
vt 0.0596 0.1772
vt 0.1697 0.1772
vt 0.1100 0.4291
vt 0.1100 0.6213
vt -0.0001 0.1772
vt -0.0001 0.3694
vt 0.7550 0.7153
vt 0.6544 0.8072
vt 0.5624 0.6252
vt 0.7550 0.8072
vt 0.2572 0.1742
vt 0.4210 0.0689
vt 0.4210 0.1742
vt 0.6397 0.5598
vt 0.6901 0.5001
vt 0.6901 0.5598
vt 0.6901 0.2828
vt 0.6397 0.3425
vt 0.6397 0.2828
vt 0.6901 0.1252
vt 0.6397 0.1252
vt 0.7498 0.1252
vt 0.6397 0.5001
vt 0.6901 0.3425
vt 0.5800 0.2828
vt 0.1520 0.7553
vt 0.0596 0.6810
vt 0.1100 0.6213
vt 0.1100 0.6810
vt 0.0596 0.3694
vt 0.1100 0.4291
vt 0.0596 0.4291
vt 0.1100 0.1772
vt 0.0596 0.1772
vt 0.1697 0.1772
vt 0.1100 0.3694
vt 0.0596 0.6213
vt -0.0001 0.3694
vt 0.8470 0.6252
vt 0.2572 0.4121
vt 0.6397 0.3425
vt 0.7498 0.2828
vt 0.5800 0.1252
vt 0.5263 0.5174
vt 0.7550 0.9893
vt 0.1697 0.3694
vt 0.5624 0.7153
vt 0.2572 0.0689
vt 0.7498 0.2828
vt 0.5800 0.1252
vt 0.1520 0.5174
vt 0.1697 0.3694
vt -0.0001 0.1772
vt 0.8470 0.7153
vn 0.0000 -1.0000 -0.0000
vn 0.0000 1.0000 0.0000
vn 1.0000 0.0000 0.0000
vn 0.0000 -0.0000 1.0000
vn -1.0000 0.0000 0.0000
vn 0.0000 0.0000 -1.0000
s 1
f 1/1/1 2/2/1 3/3/1
f 4/4/2 5/5/2 6/6/2
f 4/4/3 1/7/3 3/8/3
f 6/6/4 7/9/4 1/7/4
f 5/5/5 2/2/5 7/10/5
f 3/8/6 8/11/6 4/4/6
f 9/12/3 10/13/3 11/14/3
f 12/15/4 13/16/4 14/17/4
f 15/18/1 11/19/1 16/20/1
f 17/21/3 12/15/3 14/17/3
f 18/22/2 19/23/2 12/15/2
f 20/24/1 21/25/1 22/26/1
f 23/27/2 24/28/2 25/29/2
f 25/29/3 20/30/3 22/31/3
f 24/28/4 26/32/4 20/30/4
f 27/33/5 21/25/5 26/34/5
f 25/29/6 21/35/6 23/36/6
f 28/37/2 29/38/2 10/13/2
f 10/13/4 16/39/4 11/14/4
f 16/20/5 30/40/5 15/18/5
f 31/41/1 14/42/1 13/43/1
f 32/44/1 33/45/1 34/46/1
f 35/47/2 36/48/2 37/49/2
f 34/50/3 37/49/3 32/51/3
f 33/52/6 35/47/6 34/50/6
f 38/53/5 39/54/5 33/45/5
f 36/55/4 32/51/4 37/49/4
f 31/56/6 18/22/6 17/21/6
f 40/57/1 41/58/1 42/59/1
f 43/60/2 44/61/2 45/62/2
f 42/63/3 43/60/3 40/64/3
f 41/65/6 46/66/6 42/63/6
f 47/67/5 44/61/5 41/58/5
f 45/68/4 40/64/4 43/60/4
f 15/69/6 28/37/6 9/12/6
f 13/43/5 48/70/5 31/41/5
f 1/1/1 7/10/1 2/2/1
f 4/4/2 8/71/2 5/5/2
f 4/4/3 6/6/3 1/7/3
f 6/6/4 5/72/4 7/9/4
f 5/5/5 8/71/5 2/2/5
f 3/8/6 2/73/6 8/11/6
f 9/12/3 28/37/3 10/13/3
f 12/15/4 19/74/4 13/16/4
f 15/18/1 9/75/1 11/19/1
f 17/21/3 18/22/3 12/15/3
f 18/22/2 48/70/2 19/23/2
f 20/24/1 26/34/1 21/25/1
f 23/27/2 27/33/2 24/28/2
f 25/29/3 24/28/3 20/30/3
f 24/28/4 27/76/4 26/32/4
f 27/33/5 23/27/5 21/25/5
f 25/29/6 22/31/6 21/35/6
f 28/37/2 30/40/2 29/38/2
f 10/13/4 29/77/4 16/39/4
f 16/20/5 29/38/5 30/40/5
f 31/41/1 17/78/1 14/42/1
f 32/44/1 38/53/1 33/45/1
f 35/47/2 39/54/2 36/48/2
f 34/50/3 35/47/3 37/49/3
f 33/52/6 39/79/6 35/47/6
f 38/53/5 36/48/5 39/54/5
f 36/55/4 38/80/4 32/51/4
f 31/56/6 48/81/6 18/22/6
f 40/57/1 47/67/1 41/58/1
f 43/60/2 46/66/2 44/61/2
f 42/63/3 46/66/3 43/60/3
f 41/65/6 44/82/6 46/66/6
f 47/67/5 45/62/5 44/61/5
f 45/68/4 47/83/4 40/64/4
f 15/69/6 30/84/6 28/37/6
f 13/43/5 19/23/5 48/70/5
