# Blender v2.78 (sub 0) OBJ File: 'Fridge.blend'
# www.blender.org
o Cube
v 1.012475 0.006168 -0.805047
v 1.012475 0.006168 0.977001
v -0.992329 0.006168 0.977001
v -0.992328 0.006168 -0.805047
v 1.012475 4.956300 -0.805046
v 1.012475 4.956300 0.977002
v -0.741728 4.646918 -0.805047
v 0.761875 4.646918 -0.805046
v -0.741728 3.100001 -0.805047
v 0.761875 3.100001 -0.805047
v -0.741728 3.409384 -0.805047
v 0.761875 3.409384 -0.805047
v -0.741728 3.409384 -0.909870
v -0.491128 4.337534 -0.909870
v -0.741728 4.646918 -0.909870
v 0.761875 4.646918 -0.909869
v 0.761875 3.409384 -0.909870
v -0.741728 0.624935 -0.805047
v 0.761875 0.624935 -0.805047
v -0.741728 3.100001 -0.909870
v 0.761875 3.100001 -0.909870
v -0.741728 0.624935 -0.909870
v 0.761875 0.624935 -0.909870
v -0.491128 2.790618 -0.909870
v -0.491128 2.945310 -0.909870
v -0.616428 4.337534 -0.909870
v -0.616428 2.790618 -0.909870
v -0.616428 2.945310 -0.909870
v -0.491128 0.934318 -0.909870
v -0.616428 0.934318 -0.909870
v -0.491128 0.779626 -0.909870
v -0.616428 0.779626 -0.909870
v -0.491128 2.790618 -1.020396
v -0.491128 2.945310 -1.020396
v -0.616428 2.790618 -1.020396
v -0.616428 2.945310 -1.020396
v -0.491128 0.779626 -1.020396
v -0.491128 0.934318 -1.020396
v -0.616428 0.779626 -1.020396
v -0.616428 0.934318 -1.020396
v -0.585103 0.934318 -0.937501
v -0.585103 0.934318 -0.992764
v -0.585103 4.337534 -1.020396
v -0.522453 0.934318 -0.937501
v -0.522453 0.934318 -0.992764
v -0.585103 2.790618 -0.937501
v -0.522453 2.790618 -0.937501
v -0.585103 2.790618 -0.992764
v -0.522453 2.790618 -0.992764
v -0.491128 3.564076 -0.909870
v -0.616428 3.564076 -0.909870
v -0.491128 4.492226 -0.909870
v -0.616428 4.492226 -0.909870
v -0.992329 4.956300 0.977002
v -0.491128 3.564076 -1.020396
v -0.616428 4.337534 -1.020396
v -0.616428 3.564076 -1.020396
v -0.522453 4.337534 -1.020396
v -0.491128 4.337534 -1.020396
v -0.491128 4.492226 -1.020396
v -0.616428 4.492226 -1.020396
v -0.522453 3.718768 -1.020396
v -0.585103 3.718768 -1.020396
v -0.585103 3.718768 -0.992764
v -0.616428 3.718768 -0.937501
v -0.522453 3.718768 -0.992764
v -0.522453 3.718768 -0.937501
v -0.585103 3.718768 -0.937501
v -0.616428 3.718768 -0.992764
v -0.491128 4.337534 -0.992764
v -0.491128 4.337534 -0.937501
v -0.522453 4.337534 -0.992764
v -0.585103 4.337534 -0.992764
v -0.585103 4.337534 -0.909870
v -0.522453 4.337534 -0.937501
v -0.585103 4.337534 -0.937501
v -0.616428 4.337534 -0.937501
v -0.522453 4.337534 -0.909870
v -0.616428 4.337534 -0.992764
v -0.616428 3.718768 -0.909870
v -0.616428 3.718768 -1.020396
v -0.491128 3.718768 -1.020396
v -0.491128 3.718768 -0.909870
v -0.491128 3.718768 -0.992764
v -0.491128 3.718768 -0.937501
v -0.522453 3.718768 -0.909870
v -0.585103 3.718768 -0.909870
v -0.992329 4.956300 -0.805046
vt 0.4753 0.6094
vt 0.0758 0.9544
vt 0.0558 0.5899
vt 1.0000 0.0000
vt 0.0000 1.0000
vt 0.0000 0.0000
vt 0.5456 0.9998
vt 0.5087 0.5756
vt 0.0002 0.5373
vt 1.0000 0.0000
vt 0.0000 1.0000
vt 0.0000 0.0000
vt 0.7848 0.4906
vt 0.7778 0.0002
vt 0.8411 0.5369
vt 0.0971 0.5015
vt 0.0002 0.0002
vt 0.0565 0.0465
vt 1.0000 0.0000
vt 0.0000 1.0000
vt 0.5460 0.7457
vt 0.6177 0.7042
vt 0.6569 0.7457
vt 0.0000 0.0000
vt 1.0000 1.0000
vt 0.5724 0.6483
vt 0.6476 0.6382
vt 0.5460 0.5690
vt 0.7452 0.6401
vt 0.7110 0.5928
vt 0.7430 0.5597
vt 0.7442 0.0356
vt 0.7088 0.6011
vt 0.6614 0.6482
vt 0.7022 0.6000
vt 0.6189 0.6991
vt 0.5799 0.6486
vt 0.6543 0.6766
vt 0.5497 0.6419
vt 0.6610 0.6182
vt 0.6259 0.5373
vt 0.5497 0.5424
vt 0.6614 0.5373
vt 0.7043 0.5932
vt 0.0000 0.0000
vt 1.0000 1.0000
vt 0.6130 0.7026
vt 0.0386 0.9998
vt 0.4959 0.9628
vt 0.0000 1.0000
vt 0.0000 0.0000
vt 0.7336 0.7909
vt 0.6817 0.8015
vt 0.6931 0.7587
vt 0.6702 0.7154
vt 0.7167 0.7024
vt 0.7128 0.7348
vt 0.7339 0.7549
vt 0.7574 0.8243
vt 0.7330 0.8023
vt 0.7566 0.8018
vt 0.7344 0.8253
vt 0.6802 0.8247
vt 0.5460 0.7704
vt 0.5977 0.7817
vt 0.5842 0.7917
vt 0.6573 0.6486
vt 0.6995 0.6914
vt 0.7129 0.6486
vt 0.6727 0.7352
vt 0.6703 0.7550
vt 0.7227 0.7528
vt 0.7669 0.7212
vt 0.6599 0.7996
vt 0.6573 0.8223
vt 0.7336 0.7361
vt 0.6934 0.7372
vt 0.7543 0.7547
vt 0.6860 0.7650
vt 0.6962 0.7995
vt 0.7456 0.5744
vt 0.7640 0.5932
vt 0.7456 0.5932
vt 0.5971 0.8348
vt 0.5460 0.8348
vt 0.6325 0.8009
vt 0.5947 0.7460
vt 0.7550 0.5465
vt 0.7738 0.5373
vt 0.7738 0.5465
vt 0.7831 0.5373
vt 0.7831 0.5465
vt 0.7456 0.5373
vt 0.7456 0.5465
vt 0.7456 0.5649
vt 0.7550 0.5649
vt 0.7456 0.5741
vt 0.7550 0.5741
vt 0.7738 0.5741
vt 0.7738 0.5649
vt 0.7831 0.5741
vt 0.7831 0.5649
vt 0.6129 0.6984
vt 1.0000 1.0000
vt 1.0000 1.0000
vt 0.0635 0.5369
vt 1.0000 1.0000
vt 0.6248 0.5762
vt 1.0000 0.0000
vt 0.7492 0.6785
vt 0.7534 0.7352
vt 0.7640 0.5744
vt 0.6446 0.7613
vt 0.7550 0.5373
vn 0.0000 0.0000 -1.0000
vn -1.0000 -0.0000 -0.0000
vn 1.0000 0.0000 0.0000
vn 0.0000 1.0000 0.0000
vn 0.0000 -1.0000 0.0000
vn 0.0000 -0.0000 1.0000
s off
f 16/1/1 13/2/1 15/3/1
f 3/4/2 88/5/2 4/6/2
f 12/7/3 16/1/3 8/8/3
f 16/1/4 7/9/4 8/8/4
f 2/10/3 5/11/3 6/12/3
f 21/13/4 9/14/4 10/15/4
f 23/16/5 18/17/5 22/18/5
f 54/19/6 2/20/6 6/12/6
f 10/15/3 23/16/3 21/13/3
f 31/21/3 38/22/3 29/23/3
f 88/24/4 6/25/4 5/11/4
f 45/26/3 47/27/3 44/28/3
f 28/29/2 35/30/2 27/31/2
f 18/17/2 20/32/2 22/18/2
f 36/33/4 25/34/4 34/35/4
f 40/36/2 32/37/2 30/38/2
f 46/39/2 42/40/2 41/41/2
f 48/42/1 45/26/1 42/40/1
f 34/35/2 24/43/2 25/34/2
f 47/27/1 41/41/1 46/39/1
f 33/44/1 36/33/1 34/35/1
f 5/45/1 4/46/1 88/5/1
f 37/47/1 40/36/1 38/22/1
f 20/32/1 23/16/1 22/18/1
f 11/48/5 17/49/5 12/7/5
f 2/10/5 4/50/5 1/51/5
f 40/36/4 29/23/4 38/22/4
f 35/30/4 24/43/4 33/44/4
f 67/52/3 72/53/3 75/54/3
f 52/55/4 61/56/4 53/57/4
f 13/2/2 7/9/2 15/3/2
f 67/52/1 76/58/1 75/54/1
f 56/59/5 73/60/5 79/61/5
f 72/53/5 43/62/5 58/63/5
f 50/64/5 57/65/5 55/66/5
f 14/67/3 60/68/3 52/55/3
f 59/69/1 61/56/1 60/68/1
f 14/70/5 75/54/5 71/71/5
f 66/72/1 73/60/1 72/53/1
f 61/56/2 26/73/2 53/57/2
f 75/54/5 70/74/5 71/71/5
f 59/75/5 72/53/5 58/63/5
f 74/76/5 75/54/5 78/77/5
f 74/76/5 77/78/5 76/58/5
f 73/60/5 77/78/5 79/61/5
f 76/58/2 64/79/2 68/80/2
f 66/81/5 68/82/5 64/83/5
f 50/64/3 82/84/3 83/85/3
f 82/84/1 57/65/1 81/86/1
f 51/87/2 81/86/2 57/65/2
f 68/88/4 86/89/4 67/90/4
f 67/90/4 83/91/4 85/92/4
f 80/93/4 68/88/4 65/94/4
f 69/95/4 68/88/4 64/96/4
f 81/97/4 64/96/4 63/98/4
f 62/99/4 64/96/4 66/100/4
f 82/101/4 66/100/4 84/102/4
f 67/90/4 84/102/4 66/100/4
f 31/21/5 39/103/5 37/47/5
f 16/1/1 17/49/1 13/2/1
f 3/4/2 54/104/2 88/5/2
f 12/7/3 17/49/3 16/1/3
f 16/1/4 15/3/4 7/9/4
f 2/10/3 1/105/3 5/11/3
f 21/13/4 20/32/4 9/14/4
f 23/16/5 19/106/5 18/17/5
f 54/19/6 3/107/6 2/20/6
f 10/15/3 19/106/3 23/16/3
f 31/21/3 37/47/3 38/22/3
f 88/24/4 54/19/4 6/25/4
f 45/26/3 49/108/3 47/27/3
f 28/29/2 36/33/2 35/30/2
f 18/17/2 9/14/2 20/32/2
f 36/33/4 28/29/4 25/34/4
f 40/36/2 39/103/2 32/37/2
f 46/39/2 48/42/2 42/40/2
f 48/42/1 49/108/1 45/26/1
f 34/35/2 33/44/2 24/43/2
f 47/27/1 44/28/1 41/41/1
f 33/44/1 35/30/1 36/33/1
f 5/45/1 1/109/1 4/46/1
f 37/47/1 39/103/1 40/36/1
f 20/32/1 21/13/1 23/16/1
f 11/48/5 13/2/5 17/49/5
f 2/10/5 3/107/5 4/50/5
f 40/36/4 30/38/4 29/23/4
f 35/30/4 27/31/4 24/43/4
f 67/52/3 66/72/3 72/53/3
f 52/55/4 60/68/4 61/56/4
f 13/2/2 11/48/2 7/9/2
f 67/52/1 68/80/1 76/58/1
f 56/59/5 43/62/5 73/60/5
f 72/53/5 73/60/5 43/62/5
f 50/64/5 51/87/5 57/65/5
f 14/67/3 59/69/3 60/68/3
f 59/69/1 56/110/1 61/56/1
f 14/70/5 78/77/5 75/54/5
f 66/72/1 64/79/1 73/60/1
f 61/56/2 56/110/2 26/73/2
f 75/54/5 72/53/5 70/74/5
f 59/75/5 70/74/5 72/53/5
f 74/76/5 76/58/5 75/54/5
f 74/76/5 26/111/5 77/78/5
f 73/60/5 76/58/5 77/78/5
f 76/58/2 73/60/2 64/79/2
f 66/81/5 67/112/5 68/82/5
f 50/64/3 55/66/3 82/84/3
f 82/84/1 55/66/1 57/65/1
f 51/87/2 80/113/2 81/86/2
f 68/88/4 87/114/4 86/89/4
f 67/90/4 86/89/4 83/91/4
f 80/93/4 87/114/4 68/88/4
f 69/95/4 65/94/4 68/88/4
f 81/97/4 69/95/4 64/96/4
f 62/99/4 63/98/4 64/96/4
f 82/101/4 62/99/4 66/100/4
f 67/90/4 85/92/4 84/102/4
f 31/21/5 32/37/5 39/103/5
