# Blender v2.78 (sub 0) OBJ File: 'TV.blend'
# www.blender.org
o Cube
v 1.000000 0.000000 -1.000000
v 1.000000 0.000000 -0.000000
v -1.000000 0.000000 -0.000000
v -0.999999 0.000000 -1.000000
v 1.000000 1.000000 -1.000000
v 0.999999 1.000000 -0.000000
v -1.000000 1.000000 -0.000000
v -0.999999 1.000000 -1.000000
v 1.000000 0.000000 -0.500000
v -0.999999 0.000000 -0.500000
v -1.000000 1.000000 -0.500000
v 0.999999 1.000000 -0.500000
v 1.000000 1.000000 -0.750000
v -0.999999 0.000000 -0.750000
v 1.000000 0.000000 -0.750000
v -0.999999 1.000000 -0.750000
v 1.000000 0.000000 -0.250000
v -1.000000 1.000000 -0.250000
v -1.000000 0.000000 -0.250000
v 0.999999 1.000000 -0.250000
v 0.000000 0.000000 -1.000000
v 0.000000 0.000000 -0.000000
v 0.000000 1.000000 -1.000000
v -0.000000 1.000000 -0.000000
v 0.000000 1.000000 -0.500000
v 0.000000 0.000000 -0.500000
v 0.000000 0.000000 -0.750000
v 0.000000 1.000000 -0.750000
v -0.000000 1.000000 -0.250000
v 0.000000 0.000000 -0.250000
v -0.499999 0.000000 -1.000000
v -0.500000 0.000000 -0.000000
v -0.500000 1.000000 -1.000000
v -0.500000 1.000000 -0.000000
v -0.500000 0.000000 -0.500000
v -0.500000 0.000000 -0.750000
v -0.500000 0.000000 -0.250000
v -0.500000 1.000000 -0.500000
v -0.500000 1.000000 -0.750000
v -0.500000 1.000000 -0.250000
v 0.500000 1.000000 -0.500000
v 0.500000 1.000000 -0.750000
v 0.500000 1.000000 -0.250000
v 0.500000 0.000000 -1.000000
v 0.500000 0.000000 -0.000000
v 0.500000 1.000000 -1.000000
v 0.499999 1.000000 -0.000000
v 0.500000 0.000000 -0.500000
v 0.500000 0.000000 -0.750000
v 0.500000 0.000000 -0.250000
v 0.750000 1.000000 -0.500000
v 0.750000 1.000000 -0.750000
v 0.749999 1.000000 -0.250000
v 0.750000 0.000000 -1.000000
v 0.750000 0.000000 -0.000000
v 0.750000 1.000000 -1.000000
v 0.749999 1.000000 -0.000000
v 0.750000 0.000000 -0.500000
v 0.750000 0.000000 -0.750000
v 0.750000 0.000000 -0.250000
v -0.749999 0.000000 -1.000000
v -0.750000 0.000000 -0.000000
v -0.749999 1.000000 -1.000000
v -0.750000 1.000000 -0.000000
v -0.750000 0.000000 -0.500000
v -0.749999 0.000000 -0.750000
v -0.750000 0.000000 -0.250000
v -0.750000 1.000000 -0.500000
v -0.750000 1.000000 -0.750000
v -0.750000 1.000000 -0.250000
v 0.250000 0.000000 -1.000000
v 0.250000 0.000000 -0.000000
v 0.250000 1.000000 -1.000000
v 0.250000 1.000000 -0.000000
v 0.250000 0.000000 -0.500000
v 0.250000 0.000000 -0.750000
v 0.250000 0.000000 -0.250000
v 0.250000 1.000000 -0.500000
v 0.250000 1.000000 -0.750000
v 0.250000 1.000000 -0.250000
v -0.250000 1.000000 -0.500000
v -0.250000 1.000000 -0.750000
v -0.250000 1.000000 -0.250000
v -0.250000 0.000000 -1.000000
v -0.250000 0.000000 -0.000000
v -0.250000 1.000000 -1.000000
v -0.250000 1.000000 -0.000000
v -0.250000 0.000000 -0.500000
v -0.250000 0.000000 -0.750000
v -0.250000 0.000000 -0.250000
v 0.000000 1.119223 -0.500000
v -1.000000 1.000000 -0.375000
v -0.999999 0.000000 -0.375000
v 1.000000 0.000000 -0.375000
v 0.999999 1.000000 -0.375000
v 0.000000 0.000000 -0.375000
v -0.000000 1.000000 -0.375000
v -0.500000 1.000000 -0.375000
v -0.500000 0.000000 -0.375000
v 0.500000 0.000000 -0.375000
v 0.500000 1.000000 -0.375000
v 0.750000 0.000000 -0.375000
v 0.750000 1.000000 -0.375000
v -0.750000 1.000000 -0.375000
v -0.750000 0.000000 -0.375000
v 0.250000 1.000000 -0.375000
v 0.250000 0.000000 -0.375000
v -0.250000 0.000000 -0.375000
v -0.250000 1.000000 -0.375000
v 1.000000 1.000000 -0.625000
v 1.000000 0.000000 -0.625000
v -0.999999 0.000000 -0.625000
v -0.999999 1.000000 -0.625000
v 0.000000 0.000000 -0.625000
v 0.000000 1.000000 -0.625000
v -0.500000 1.000000 -0.625000
v -0.500000 0.000000 -0.625000
v 0.500000 0.000000 -0.625000
v 0.500000 1.000000 -0.625000
v 0.750000 0.000000 -0.625000
v 0.750000 1.000000 -0.625000
v -0.750000 1.000000 -0.625000
v -0.749999 0.000000 -0.625000
v 0.250000 1.000000 -0.625000
v 0.250000 0.000000 -0.625000
v -0.250000 0.000000 -0.625000
v -0.250000 1.000000 -0.625000
v 0.750000 1.119223 -0.375000
v -0.750000 1.119223 -0.375000
v 0.750000 1.119223 -0.625000
v -0.750000 1.119223 -0.625000
v 0.750000 1.880346 -0.375000
v -0.750000 1.880346 -0.375000
v 0.750000 1.880346 -0.625000
v -0.750000 1.880346 -0.625000
vt 1.0000 0.0000
vt 0.0000 1.0000
vt 0.0000 0.0000
vt 0.0000 0.0000
vt 1.0000 1.0000
vt 0.0000 1.0000
vt 1.0000 0.0000
vt 0.0000 1.0000
vt 0.0000 0.0000
vt 1.0000 0.0000
vt 0.0000 1.0000
vt 0.0000 0.0000
vt 1.0000 0.0000
vt 0.0000 1.0000
vt 0.0000 0.0000
vt 0.0000 0.0000
vt 1.0000 1.0000
vt 0.0000 1.0000
vt 1.0000 0.0000
vt 0.0000 1.0000
vt 0.0000 0.0000
vt 1.0000 0.0000
vt 0.0000 1.0000
vt 0.0000 0.0000
vt 1.0000 0.0000
vt 0.0000 1.0000
vt 0.0000 0.0000
vt 1.0000 0.0000
vt 0.0000 1.0000
vt 0.0000 0.0000
vt 1.0000 0.0000
vt 0.0000 0.0000
vt 1.0000 0.0000
vt 0.0000 1.0000
vt 0.0000 0.0000
vt 1.0000 0.0000
vt 0.0000 1.0000
vt 0.0000 0.0000
vt 0.0000 0.0000
vt 1.0000 1.0000
vt 0.0000 1.0000
vt 1.0000 0.0000
vt 0.0000 1.0000
vt 0.0000 0.0000
vt 0.0000 0.0000
vt 1.0000 1.0000
vt 0.0000 1.0000
vt 1.0000 0.0000
vt 0.0000 0.0000
vt 1.0000 0.0000
vt 0.0000 1.0000
vt 0.0000 0.0000
vt 1.0000 0.0000
vt 0.0000 1.0000
vt 0.0000 0.0000
vt 0.0000 0.0000
vt 1.0000 1.0000
vt 0.0000 1.0000
vt 0.0000 0.0000
vt 1.0000 1.0000
vt 0.0000 1.0000
vt 1.0000 0.0000
vt 0.0000 1.0000
vt 0.0000 0.0000
vt 1.0000 0.0000
vt 0.0000 1.0000
vt 0.0000 0.0000
vt 1.0000 0.0000
vt 0.0000 1.0000
vt 0.0000 0.0000
vt 0.0000 0.0000
vt 1.0000 1.0000
vt 0.0000 1.0000
vt 1.0000 0.0000
vt 0.0000 0.0000
vt 1.0000 0.0000
vt 0.0000 1.0000
vt 0.0000 0.0000
vt 1.0000 0.0000
vt 0.0000 1.0000
vt 0.0000 0.0000
vt 0.0000 0.0000
vt 1.0000 1.0000
vt 0.0000 1.0000
vt 0.0000 0.0000
vt 1.0000 1.0000
vt 0.0000 1.0000
vt 1.0000 1.0000
vt 0.0000 1.0000
vt 0.0000 0.0000
vt 1.0000 1.0000
vt 0.0000 1.0000
vt 1.0000 0.0000
vt 0.0000 1.0000
vt 0.0000 0.0000
vt 1.0000 0.0000
vt 0.0000 1.0000
vt 0.0000 0.0000
vt 1.0000 0.0000
vt 0.0000 1.0000
vt 0.0000 0.0000
vt 1.0000 0.0000
vt 0.0000 1.0000
vt 0.0000 0.0000
vt 1.0000 0.0000
vt 1.0000 0.0000
vt 0.0000 1.0000
vt 0.0000 0.0000
vt 0.0000 0.0000
vt 1.0000 1.0000
vt 0.0000 1.0000
vt 1.0000 0.0000
vt 0.0000 1.0000
vt 1.0000 0.0000
vt 0.0000 1.0000
vt 0.0000 0.0000
vt 0.0000 0.0000
vt 1.0000 1.0000
vt 0.0000 1.0000
vt 1.0000 0.0000
vt 0.0000 1.0000
vt 0.0000 0.0000
vt 0.0000 0.0000
vt 1.0000 1.0000
vt 0.0000 1.0000
vt 0.0000 0.0000
vt 1.0000 1.0000
vt 0.0000 1.0000
vt 1.0000 1.0000
vt 0.0000 0.0000
vt 1.0000 1.0000
vt 0.0000 1.0000
vt 0.0000 0.0000
vt 1.0000 1.0000
vt 0.0000 1.0000
vt 1.0000 0.0000
vt 0.0000 1.0000
vt 1.0000 0.0000
vt 0.0000 1.0000
vt 1.0000 1.0000
vt 0.0000 1.0000
vt 1.0000 0.0000
vt 0.0000 1.0000
vt 0.0000 0.0000
vt 1.0000 0.0000
vt 0.0000 1.0000
vt 0.0000 0.0000
vt 1.0000 0.0000
vt 0.0000 1.0000
vt 0.0000 0.0000
vt 1.0000 1.0000
vt 0.0000 1.0000
vt 1.0000 0.0000
vt 0.0000 0.0000
vt 0.0000 0.0000
vt 1.0000 1.0000
vt 0.0000 1.0000
vt 1.0000 0.0000
vt 0.0000 1.0000
vt 0.0000 0.0000
vt 0.0000 0.0000
vt 1.0000 1.0000
vt 0.0000 1.0000
vt 0.0000 0.0000
vt 1.0000 1.0000
vt 0.0000 1.0000
vt 0.0000 0.0000
vt 1.0000 1.0000
vt 0.0000 1.0000
vt 0.0000 0.0000
vt 1.0000 1.0000
vt 0.0000 1.0000
vt 1.0000 0.0000
vt 0.0000 1.0000
vt 0.0000 0.0000
vt 1.0000 0.0000
vt 0.0000 1.0000
vt 0.0000 0.0000
vt 1.0000 0.0000
vt 0.0000 1.0000
vt 0.0000 0.0000
vt 1.0000 0.0000
vt 0.0000 1.0000
vt 0.0000 0.0000
vt 1.0000 0.0000
vt 0.0000 0.0000
vt 1.0000 0.0000
vt 0.0000 1.0000
vt 0.0000 0.0000
vt 0.0000 0.0000
vt 1.0000 1.0000
vt 0.0000 1.0000
vt 0.0000 0.0000
vt 1.0000 1.0000
vt 0.0000 1.0000
vt 0.0000 0.0000
vt 1.0000 1.0000
vt 0.0000 1.0000
vt 0.0000 0.0000
vt 1.0000 1.0000
vt 0.0000 1.0000
vt 1.0000 0.0000
vt 0.0000 1.0000
vt 0.0000 0.0000
vt 1.0000 0.0000
vt 1.0000 0.0000
vt 0.0000 1.0000
vt 0.0000 0.0000
vt 1.0000 0.0000
vt 0.0000 1.0000
vt 0.0000 0.0000
vt 1.0000 0.0000
vt 0.0000 1.0000
vt 0.0000 0.0000
vt 0.0000 0.0000
vt 1.0000 1.0000
vt 0.0000 1.0000
vt 1.0000 0.0000
vt 0.0000 1.0000
vt 0.0000 0.0000
vt 1.0000 0.0000
vt 0.0000 1.0000
vt 1.0000 0.0000
vt 0.0000 1.0000
vt 0.0000 0.0000
vt 1.0000 0.0000
vt 0.0000 1.0000
vt 0.0000 0.0000
vt 1.0000 0.0000
vt 0.0000 1.0000
vt 0.0000 0.0000
vt 1.0000 0.0000
vt 0.0000 1.0000
vt 0.0000 0.0000
vt 0.0000 0.0000
vt 1.0000 1.0000
vt 0.0000 1.0000
vt 0.0000 0.0000
vt 1.0000 1.0000
vt 0.0000 1.0000
vt 1.0000 1.0000
vt 0.0000 0.0000
vt 1.0000 1.0000
vt 0.0000 1.0000
vt 0.0000 0.0000
vt 1.0000 1.0000
vt 0.0000 1.0000
vt 1.0000 0.0000
vt 0.0000 1.0000
vt 0.0000 0.0000
vt 0.0000 0.0000
vt 1.0000 1.0000
vt 0.0000 1.0000
vt 0.0000 0.0000
vt 1.0000 1.0000
vt 0.0000 1.0000
vt 1.0000 0.0000
vt 0.0000 1.0000
vt 0.0000 0.0000
vt 0.0000 1.0000
vt 0.0000 0.0000
vt 0.0000 0.0000
vt 1.0000 1.0000
vt 0.0000 1.0000
vt 0.0000 0.0000
vt 1.0000 1.0000
vt 0.0000 1.0000
vt 0.0000 0.0000
vt 1.0000 1.0000
vt 0.0000 1.0000
vt 1.0000 0.0000
vt 0.0000 1.0000
vt 0.0000 0.0000
vt 1.0000 0.0000
vt 0.0000 1.0000
vt 0.0000 0.0000
vt 0.0000 0.0000
vt 1.0000 1.0000
vt 0.0000 1.0000
vt 0.0000 0.0000
vt 1.0000 1.0000
vt 0.0000 1.0000
vt 1.0000 0.0000
vt 0.0000 1.0000
vt 0.0000 0.0000
vt 1.0000 0.0000
vt 0.0000 0.0000
vt 0.0000 0.0000
vt 1.0000 1.0000
vt 0.0000 1.0000
vt 1.0000 0.0000
vt 0.0000 1.0000
vt 1.0000 0.0000
vt 0.0000 0.0000
vt 0.0000 0.0000
vt 1.0000 1.0000
vt 0.0000 1.0000
vt 1.0000 0.0000
vt 0.0000 1.0000
vt 0.0000 0.0000
vt 0.0000 0.0000
vt 1.0000 1.0000
vt 0.0000 1.0000
vt 0.0000 0.0000
vt 1.0000 1.0000
vt 0.0000 1.0000
vt 1.0000 0.0000
vt 0.0000 1.0000
vt 0.0000 0.0000
vt 0.0000 0.0000
vt 1.0000 1.0000
vt 0.0000 1.0000
vt 1.0000 0.0000
vt 0.0000 1.0000
vt 0.0000 0.0000
vt 1.0000 0.0000
vt 0.0000 1.0000
vt 0.0000 0.0000
vt 0.0000 0.0000
vt 1.0000 1.0000
vt 0.0000 1.0000
vt 1.0000 0.0000
vt 0.0000 1.0000
vt 0.0000 0.0000
vt 1.0000 0.0000
vt 0.0000 1.0000
vt 0.0000 0.0000
vt 0.0000 0.0000
vt 1.0000 1.0000
vt 0.0000 1.0000
vt 1.0000 0.0000
vt 0.0000 1.0000
vt 0.0000 0.0000
vt 1.0000 0.0000
vt 0.0000 1.0000
vt 0.0000 0.0000
vt 1.0000 0.0000
vt 0.0000 0.0000
vt 1.0000 0.0000
vt 0.0000 0.0000
vt 1.0000 0.0000
vt 0.0000 1.0000
vt 0.0000 0.0000
vt 1.0000 1.0000
vt 0.0000 1.0000
vt 1.0000 0.0000
vt 0.0000 1.0000
vt 0.0000 0.0000
vt 1.0000 0.0000
vt 0.0000 1.0000
vt 0.0000 0.0000
vt 1.0000 0.0000
vt 0.0000 0.0000
vt 0.2642 0.5000
vt 0.0001 0.9999
vt 0.0001 0.0001
vt 0.5284 0.9999
vt 0.5284 0.0001
vt 1.0000 0.0000
vt 0.0000 1.0000
vt 1.0000 0.0000
vt 0.0000 0.0000
vt 1.0000 0.0000
vt 0.0000 1.0000
vt 1.0000 1.0000
vt 1.0000 0.0000
vt 1.0000 1.0000
vt 1.0000 1.0000
vt 1.0000 1.0000
vt 1.0000 1.0000
vt 1.0000 1.0000
vt 1.0000 1.0000
vt 1.0000 1.0000
vt 1.0000 0.0000
vt 1.0000 0.0000
vt 1.0000 1.0000
vt 1.0000 1.0000
vt 1.0000 1.0000
vt 1.0000 0.0000
vt 1.0000 0.0000
vt 1.0000 1.0000
vt 1.0000 1.0000
vt 1.0000 1.0000
vt 1.0000 1.0000
vt 1.0000 1.0000
vt 1.0000 0.0000
vt 1.0000 0.0000
vt 1.0000 0.0000
vt 1.0000 1.0000
vt 1.0000 1.0000
vt 1.0000 1.0000
vt 1.0000 1.0000
vt 1.0000 1.0000
vt 1.0000 0.0000
vt 1.0000 1.0000
vt 1.0000 0.0000
vt 1.0000 1.0000
vt 1.0000 0.0000
vt 1.0000 0.0000
vt 1.0000 0.0000
vt 1.0000 0.0000
vt 1.0000 1.0000
vt 1.0000 1.0000
vt 1.0000 0.0000
vt 1.0000 1.0000
vt 1.0000 1.0000
vt 1.0000 0.0000
vt 1.0000 1.0000
vt 1.0000 1.0000
vt 1.0000 1.0000
vt 1.0000 1.0000
vt 1.0000 1.0000
vt 1.0000 1.0000
vt 1.0000 1.0000
vt 1.0000 0.0000
vt 1.0000 0.0000
vt 1.0000 0.0000
vt 1.0000 1.0000
vt 1.0000 1.0000
vt 1.0000 1.0000
vt 1.0000 1.0000
vt 1.0000 0.0000
vt 1.0000 1.0000
vt 1.0000 1.0000
vt 1.0000 1.0000
vt 1.0000 1.0000
vt 1.0000 1.0000
vt 1.0000 0.0000
vt 1.0000 0.0000
vt 1.0000 0.0000
vt 1.0000 0.0000
vt 1.0000 1.0000
vt 1.0000 0.0000
vt 1.0000 0.0000
vt 1.0000 1.0000
vt 1.0000 1.0000
vt 1.0000 0.0000
vt 1.0000 0.0000
vt 1.0000 0.0000
vt 1.0000 1.0000
vt 1.0000 1.0000
vt 1.0000 0.0000
vt 1.0000 0.0000
vt 1.0000 1.0000
vt 1.0000 1.0000
vt 1.0000 0.0000
vt 1.0000 1.0000
vt 1.0000 0.0000
vt 1.0000 1.0000
vt 1.0000 0.0000
vt 1.0000 0.0000
vt 1.0000 1.0000
vt 1.0000 1.0000
vt 1.0000 1.0000
vt 1.0000 0.0000
vt 1.0000 1.0000
vt 1.0000 1.0000
vt 1.0000 0.0000
vt 1.0000 1.0000
vt 1.0000 1.0000
vt 1.0000 1.0000
vt 1.0000 1.0000
vt 1.0000 0.0000
vt 1.0000 1.0000
vt 1.0000 1.0000
vt 1.0000 1.0000
vt 1.0000 1.0000
vn 0.0000 -1.0000 0.0000
vn 0.0000 1.0000 0.0000
vn -1.0000 -0.0000 -0.0000
vn 1.0000 0.0000 0.0000
vn 0.0000 0.0000 -1.0000
vn -0.0000 0.0000 1.0000
vn 0.4305 0.9026 0.0000
vn 0.4305 -0.9026 0.0000
vn 0.0000 -0.9026 -0.4305
vn 0.0000 0.9026 -0.4305
s off
f 62/1/1 19/2/1 67/3/1
f 121/4/2 12/5/2 110/6/2
f 92/7/3 10/8/3 93/9/3
f 110/10/4 9/11/4 111/12/4
f 61/13/5 8/14/5 63/15/5
f 53/16/2 6/17/2 20/18/2
f 16/19/3 4/20/3 14/21/3
f 64/22/6 3/23/6 62/24/6
f 20/25/4 2/26/4 17/27/4
f 65/28/1 112/29/1 123/30/1
f 66/31/1 4/20/1 61/32/1
f 113/33/3 14/34/3 112/35/3
f 5/36/4 15/37/4 1/38/4
f 56/39/2 13/40/2 5/41/2
f 95/42/4 17/43/4 94/44/4
f 103/45/2 20/46/2 95/47/2
f 7/48/3 19/2/3 3/49/3
f 67/50/1 93/51/1 105/52/1
f 77/53/1 96/54/1 107/55/1
f 109/56/2 29/57/2 97/58/2
f 86/59/2 28/60/2 23/61/2
f 76/62/1 21/63/1 71/64/1
f 75/65/1 114/66/1 125/67/1
f 74/68/6 22/69/6 72/70/6
f 83/71/2 24/72/2 29/73/2
f 71/74/5 23/61/5 73/75/5
f 81/76/2 115/77/2 127/78/2
f 72/79/1 30/80/1 77/81/1
f 122/82/2 38/83/2 116/84/2
f 70/85/2 34/86/2 40/87/2
f 63/15/2 39/88/2 33/89/2
f 104/90/2 40/91/2 98/92/2
f 90/93/1 99/94/1 108/95/1
f 89/96/1 31/97/1 84/98/1
f 88/99/1 117/100/1 126/101/1
f 87/102/6 32/103/6 85/104/6
f 84/105/5 33/89/5 86/59/5
f 85/106/1 37/107/1 90/108/1
f 60/109/1 45/110/1 50/111/1
f 54/112/5 46/113/5 56/39/5
f 57/114/6 45/115/6 55/116/6
f 120/117/1 48/118/1 118/119/1
f 59/120/1 44/121/1 54/122/1
f 102/123/1 50/124/1 100/125/1
f 106/126/2 43/127/2 101/128/2
f 73/75/2 42/129/2 46/113/2
f 80/130/2 47/131/2 43/132/2
f 124/133/2 41/134/2 119/135/2
f 17/136/1 102/137/1 94/44/1
f 15/138/1 54/139/1 1/38/1
f 111/12/1 58/140/1 120/141/1
f 6/142/6 55/143/6 2/144/6
f 1/145/5 56/146/5 5/147/5
f 2/148/1 60/149/1 17/27/1
f 101/150/2 53/151/2 103/152/2
f 42/153/2 56/146/2 46/154/2
f 43/155/2 57/156/2 53/157/2
f 41/158/2 121/159/2 119/160/2
f 92/161/2 70/162/2 104/163/2
f 8/164/2 69/165/2 63/166/2
f 18/167/2 64/168/2 70/169/2
f 113/170/2 68/171/2 122/172/2
f 37/173/1 105/174/1 99/175/1
f 36/176/1 61/177/1 31/178/1
f 35/179/1 123/180/1 117/181/1
f 34/182/6 62/183/6 32/184/6
f 31/185/5 63/166/5 33/186/5
f 32/187/1 67/188/1 37/189/1
f 115/190/2 78/191/2 124/192/2
f 29/193/2 74/194/2 80/195/2
f 23/196/2 79/197/2 73/198/2
f 97/199/2 80/200/2 106/201/2
f 45/202/1 77/203/1 50/204/1
f 44/205/5 73/198/5 46/154/5
f 47/206/6 72/207/6 45/208/6
f 48/209/1 125/210/1 118/211/1
f 49/212/1 71/213/1 44/214/1
f 100/215/1 77/216/1 107/217/1
f 22/218/1 90/219/1 30/220/1
f 21/221/5 86/222/5 23/196/5
f 24/223/6 85/224/6 22/225/6
f 26/226/1 126/227/1 114/228/1
f 27/229/1 84/230/1 21/231/1
f 30/232/1 108/233/1 96/234/1
f 116/235/2 81/236/2 127/237/2
f 40/238/2 87/239/2 83/240/2
f 33/186/2 82/241/2 86/222/2
f 98/242/2 83/243/2 109/244/2
f 38/245/2 109/246/2 81/247/2
f 96/248/1 88/249/1 26/250/1
f 48/251/1 107/252/1 75/253/1
f 25/254/2 106/255/2 78/256/2
f 99/257/1 65/258/1 35/259/1
f 92/7/2 68/260/2 11/261/2
f 41/262/2 103/263/2 51/264/2
f 9/265/1 102/266/1 58/267/1
f 78/268/2 101/269/2 41/270/2
f 102/271/1 48/272/1 58/273/1
f 108/274/1 35/275/1 88/276/1
f 68/277/2 98/278/2 38/279/2
f 81/280/2 97/281/2 25/282/2
f 107/283/1 26/284/1 75/285/1
f 105/286/1 10/8/1 65/287/1
f 51/288/2 95/289/2 12/290/2
f 12/291/4 94/292/4 9/265/4
f 18/293/3 93/51/3 19/294/3
f 39/295/2 127/296/2 82/297/2
f 114/298/1 89/299/1 27/300/1
f 49/301/1 125/302/1 76/303/1
f 28/304/2 124/305/2 79/306/2
f 117/307/1 66/308/1 36/309/1
f 16/310/2 122/311/2 69/312/2
f 119/313/2 52/314/2 42/315/2
f 111/316/1 59/317/1 15/318/1
f 79/319/2 119/320/2 42/321/2
f 120/322/1 49/323/1 59/324/1
f 126/325/1 36/326/1 89/327/1
f 69/328/2 116/329/2 39/330/2
f 127/331/2 28/332/2 82/333/2
f 125/334/1 27/335/1 76/336/1
f 11/337/3 112/29/3 10/338/3
f 123/339/1 14/34/1 66/340/1
f 13/341/4 111/342/4 15/318/4
f 52/343/2 110/344/2 13/345/2
f 133/346/6 128/347/6 132/348/6
f 130/349/5 135/350/5 134/351/5
f 131/352/1 128/347/1 129/353/1
f 91/354/7 80/355/7 79/356/7
f 91/354/8 83/357/8 82/358/8
f 91/354/9 80/355/9 83/357/9
f 91/354/10 79/356/10 82/358/10
f 128/359/4 134/360/4 132/348/4
f 132/361/2 135/350/2 133/362/2
f 135/363/3 129/364/3 133/362/3
f 62/1/1 3/365/1 19/2/1
f 121/4/2 51/366/2 12/5/2
f 92/7/3 11/367/3 10/8/3
f 110/10/4 12/5/4 9/11/4
f 61/13/5 4/368/5 8/14/5
f 53/16/2 57/114/2 6/17/2
f 16/19/3 8/369/3 4/20/3
f 64/22/6 7/370/6 3/23/6
f 20/25/4 6/17/4 2/26/4
f 65/28/1 10/371/1 112/29/1
f 66/31/1 14/372/1 4/20/1
f 113/33/3 16/373/3 14/34/3
f 5/36/4 13/40/4 15/37/4
f 56/39/2 52/374/2 13/40/2
f 95/42/4 20/46/4 17/43/4
f 103/45/2 53/375/2 20/46/2
f 7/48/3 18/376/3 19/2/3
f 67/50/1 19/377/1 93/51/1
f 77/53/1 30/378/1 96/54/1
f 109/56/2 83/379/2 29/57/2
f 86/59/2 82/380/2 28/60/2
f 76/62/1 27/381/1 21/63/1
f 75/65/1 26/382/1 114/66/1
f 74/68/6 24/72/6 22/69/6
f 83/71/2 87/102/2 24/72/2
f 71/74/5 21/383/5 23/61/5
f 81/76/2 25/384/2 115/77/2
f 72/79/1 22/385/1 30/80/1
f 122/82/2 68/386/2 38/83/2
f 70/85/2 64/22/2 34/86/2
f 63/15/2 69/387/2 39/88/2
f 104/90/2 70/388/2 40/91/2
f 90/93/1 37/389/1 99/94/1
f 89/96/1 36/390/1 31/97/1
f 88/99/1 35/391/1 117/100/1
f 87/102/6 34/86/6 32/103/6
f 84/105/5 31/392/5 33/89/5
f 85/106/1 32/393/1 37/107/1
f 60/109/1 55/394/1 45/110/1
f 54/112/5 44/395/5 46/113/5
f 57/114/6 47/131/6 45/115/6
f 120/117/1 58/396/1 48/118/1
f 59/120/1 49/397/1 44/121/1
f 102/123/1 60/398/1 50/124/1
f 106/126/2 80/399/2 43/127/2
f 73/75/2 79/400/2 42/129/2
f 80/130/2 74/68/2 47/131/2
f 124/133/2 78/401/2 41/134/2
f 17/136/1 60/402/1 102/137/1
f 15/138/1 59/403/1 54/139/1
f 111/12/1 9/404/1 58/140/1
f 6/142/6 57/156/6 55/143/6
f 1/145/5 54/405/5 56/146/5
f 2/148/1 55/406/1 60/149/1
f 101/150/2 43/407/2 53/151/2
f 42/153/2 52/408/2 56/146/2
f 43/155/2 47/206/2 57/156/2
f 41/158/2 51/409/2 121/159/2
f 92/161/2 18/293/2 70/162/2
f 8/164/2 16/19/2 69/165/2
f 18/167/2 7/48/2 64/168/2
f 113/170/2 11/337/2 68/171/2
f 37/173/1 67/410/1 105/174/1
f 36/176/1 66/411/1 61/177/1
f 35/179/1 65/412/1 123/180/1
f 34/182/6 64/168/6 62/183/6
f 31/185/5 61/413/5 63/166/5
f 32/187/1 62/414/1 67/188/1
f 115/190/2 25/415/2 78/191/2
f 29/193/2 24/223/2 74/194/2
f 23/196/2 28/416/2 79/197/2
f 97/199/2 29/417/2 80/200/2
f 45/202/1 72/418/1 77/203/1
f 44/205/5 71/419/5 73/198/5
f 47/206/6 74/194/6 72/207/6
f 48/209/1 75/420/1 125/210/1
f 49/212/1 76/421/1 71/213/1
f 100/215/1 50/422/1 77/216/1
f 22/218/1 85/423/1 90/219/1
f 21/221/5 84/424/5 86/222/5
f 24/223/6 87/239/6 85/224/6
f 26/226/1 88/425/1 126/227/1
f 27/229/1 89/426/1 84/230/1
f 30/232/1 90/427/1 108/233/1
f 116/235/2 38/428/2 81/236/2
f 40/238/2 34/182/2 87/239/2
f 33/186/2 39/429/2 82/241/2
f 98/242/2 40/430/2 83/243/2
f 38/245/2 98/431/2 109/246/2
f 96/248/1 108/432/1 88/249/1
f 48/251/1 100/433/1 107/252/1
f 25/254/2 97/434/2 106/255/2
f 99/257/1 105/435/1 65/258/1
f 92/7/2 104/436/2 68/260/2
f 41/262/2 101/437/2 103/263/2
f 9/265/1 94/438/1 102/266/1
f 78/268/2 106/439/2 101/269/2
f 102/271/1 100/440/1 48/272/1
f 108/274/1 99/441/1 35/275/1
f 68/277/2 104/442/2 98/278/2
f 81/280/2 109/443/2 97/281/2
f 107/283/1 96/444/1 26/284/1
f 105/286/1 93/445/1 10/8/1
f 51/288/2 103/446/2 95/289/2
f 12/291/4 95/289/4 94/292/4
f 18/293/3 92/447/3 93/51/3
f 39/295/2 116/448/2 127/296/2
f 114/298/1 126/449/1 89/299/1
f 49/301/1 118/450/1 125/302/1
f 28/304/2 115/451/2 124/305/2
f 117/307/1 123/452/1 66/308/1
f 16/310/2 113/33/2 122/311/2
f 119/313/2 121/453/2 52/314/2
f 111/316/1 120/454/1 59/317/1
f 79/319/2 124/455/2 119/320/2
f 120/322/1 118/456/1 49/323/1
f 126/325/1 117/457/1 36/326/1
f 69/328/2 122/458/2 116/329/2
f 127/331/2 115/459/2 28/332/2
f 125/334/1 114/460/1 27/335/1
f 11/337/3 113/461/3 112/29/3
f 123/339/1 112/462/1 14/34/1
f 13/341/4 110/344/4 111/342/4
f 52/343/2 121/463/2 110/344/2
f 133/346/6 129/464/6 128/347/6
f 130/349/5 131/465/5 135/350/5
f 131/352/1 130/466/1 128/347/1
f 128/359/4 130/466/4 134/360/4
f 132/361/2 134/467/2 135/350/2
f 135/363/3 131/465/3 129/364/3
l 25 91
l 103 128
l 104 129
l 121 130
l 122 131
