# Blender v2.78 (sub 0) OBJ File: 'Wall.blend'
# www.blender.org
o Wall_Cube
v 0.500000 0.000000 -0.500000
v 0.500000 0.000000 0.500000
v -0.500000 0.000000 0.500000
v -0.500000 0.000000 -0.500000
v 0.500000 6.000000 -0.499999
v 0.500000 6.000000 0.500000
v -0.500000 6.000000 0.500000
v -0.500000 6.000000 -0.500000
vt 0.3335 0.3331
vt 0.6665 0.0002
vt 0.6665 0.3331
vt 0.3331 0.3331
vt 0.0002 0.0002
vt 0.3331 0.0002
vt 0.3331 0.6665
vt 0.0002 0.3335
vt 0.3331 0.3335
vt 0.3331 0.9998
vt 0.0002 0.6669
vt 0.3331 0.6669
vt 0.6669 0.0002
vt 0.9998 0.3331
vt 0.6669 0.3331
vt 0.6665 0.6665
vt 0.3335 0.3335
vt 0.6665 0.3335
vt 0.3335 0.0002
vt 0.0002 0.3331
vt 0.0002 0.6665
vt 0.0002 0.9998
vt 0.9998 0.0002
vt 0.3335 0.6665
vn 0.0000 -1.0000 0.0000
vn 0.0000 1.0000 0.0000
vn 1.0000 -0.0000 0.0000
vn 0.0000 -0.0000 1.0000
vn -1.0000 -0.0000 -0.0000
vn 0.0000 0.0000 -1.0000
s off
f 2/1/1 4/2/1 1/3/1
f 5/4/2 7/5/2 6/6/2
f 5/7/3 2/8/3 1/9/3
f 6/10/4 3/11/4 2/12/4
f 7/13/5 4/14/5 3/15/5
f 1/16/6 8/17/6 5/18/6
f 2/1/1 3/19/1 4/2/1
f 5/4/2 8/20/2 7/5/2
f 5/7/3 6/21/3 2/8/3
f 6/10/4 7/22/4 3/11/4
f 7/13/5 8/23/5 4/14/5
f 1/16/6 4/24/6 8/17/6
