# Blender v2.78 (sub 0) OBJ File: 'Chair.blend'
# www.blender.org
o Cube
v 0.500000 0.000000 0.500000
v -0.500000 0.000000 0.500000
v -0.500000 0.000000 -0.500000
v 0.500000 0.000000 -0.500000
v 0.499999 1.000000 0.500000
v -0.500000 1.000000 0.499999
v -0.500000 1.000000 -0.500000
v 0.500000 1.000000 -0.500000
v 0.300000 0.000000 0.500000
v 0.300000 0.000000 -0.500000
v 0.300000 1.000000 0.500000
v 0.300000 1.000000 -0.500000
v -0.300000 0.000000 0.500000
v -0.300000 1.000000 0.500000
v -0.300000 0.000000 -0.500000
v -0.300000 1.000000 -0.500000
v 0.500000 0.800000 0.500000
v -0.500000 0.800000 0.500000
v -0.500000 0.800000 -0.500000
v 0.500000 0.800000 -0.500000
v 0.300000 0.800000 -0.500000
v 0.300000 0.800000 0.500000
v -0.300000 0.800000 -0.500000
v -0.300000 0.800000 0.500000
v 0.500000 0.000000 0.288224
v -0.500000 0.000000 0.288224
v 0.500000 1.000000 0.288224
v -0.500000 1.000000 0.288224
v 0.300000 1.000000 0.288224
v 0.300000 0.000000 0.288224
v -0.300000 1.000000 0.288224
v -0.300000 0.000000 0.288224
v 0.500000 0.800000 0.288224
v -0.500000 0.800000 0.288224
v 0.300000 0.800000 0.288224
v -0.300000 0.800000 0.288224
v 0.500000 0.000000 -0.288224
v -0.500000 0.000000 -0.288224
v 0.500000 1.000000 -0.288224
v -0.500000 1.000000 -0.288224
v 0.300000 0.000000 -0.288224
v -0.300000 0.000000 -0.288224
v 0.500000 0.800000 -0.288224
v -0.500000 0.800000 -0.288224
v 0.300000 0.800000 -0.288224
v -0.300000 0.800000 -0.288224
v 0.300000 1.000000 -0.288224
v -0.300000 1.000000 -0.288224
v -0.300000 1.826965 0.500000
v -0.500000 1.826965 0.499999
v -0.500000 1.826965 -0.288224
v -0.500000 1.826965 -0.500000
v -0.300000 1.826965 -0.500000
v -0.300000 1.826965 0.288224
v -0.500000 1.826965 0.288224
v -0.300000 1.826965 -0.288224
vt 1.0000 0.0000
vt 0.0000 1.0000
vt 0.0000 0.0000
vt 1.0000 0.0000
vt 0.0000 1.0000
vt 0.0000 0.0000
vt 1.0000 0.0000
vt 0.0000 1.0000
vt 0.0000 0.0000
vt 0.0000 1.0000
vt 0.0000 0.0000
vt 0.0000 0.0000
vt 1.0000 1.0000
vt 0.0000 1.0000
vt 1.0000 0.0000
vt 0.0000 0.0000
vt 1.0000 0.0000
vt 0.0000 1.0000
vt 0.0000 0.0000
vt 1.0000 0.0000
vt 0.0000 1.0000
vt 0.0000 0.0000
vt 1.0000 0.0000
vt 0.0000 1.0000
vt 0.0000 0.0000
vt 1.0000 0.0000
vt 0.0000 1.0000
vt 0.0000 0.0000
vt 1.0000 0.0000
vt 0.0000 1.0000
vt 0.0000 0.0000
vt 1.0000 0.0000
vt 0.0000 1.0000
vt 0.0000 0.0000
vt 0.0000 0.0000
vt 1.0000 1.0000
vt 0.0000 1.0000
vt 1.0000 0.0000
vt 0.0000 0.0000
vt 1.0000 0.0000
vt 0.0000 1.0000
vt 0.0000 0.0000
vt 1.0000 1.0000
vt 0.0000 1.0000
vt 0.0000 0.0000
vt 1.0000 0.0000
vt 0.0000 1.0000
vt 0.0000 0.0000
vt 1.0000 0.0000
vt 0.0000 1.0000
vt 0.0000 0.0000
vt 1.0000 0.0000
vt 0.0000 0.0000
vt 1.0000 0.0000
vt 0.0000 1.0000
vt 0.0000 0.0000
vt 1.0000 0.0000
vt 0.0000 1.0000
vt 0.0000 0.0000
vt 1.0000 0.0000
vt 0.0000 1.0000
vt 0.0000 0.0000
vt 1.0000 1.0000
vt 1.0000 0.0000
vt 0.0000 1.0000
vt 0.0000 0.0000
vt 0.0000 1.0000
vt 0.0000 0.0000
vt 0.0000 0.0000
vt 1.0000 1.0000
vt 0.0000 1.0000
vt 1.0000 1.0000
vt 0.0000 1.0000
vt 1.0000 0.0000
vt 0.0000 1.0000
vt 1.0000 1.0000
vt 0.0000 1.0000
vt 1.0000 0.0000
vt 0.0000 1.0000
vt 0.0000 0.0000
vt 0.0000 1.0000
vt 0.0000 0.0000
vt 1.0000 1.0000
vt 0.0000 1.0000
vt 1.0000 0.0000
vt 0.0000 1.0000
vt 0.0000 0.0000
vt 0.0000 0.0000
vt 1.0000 1.0000
vt 0.0000 1.0000
vt 0.0000 0.0000
vt 0.0000 0.0000
vt 1.0000 1.0000
vt 0.0000 1.0000
vt 1.0000 0.0000
vt 0.0000 1.0000
vt 0.0000 0.0000
vt 1.0000 1.0000
vt 0.0000 1.0000
vt 1.0000 0.0000
vt 0.0000 1.0000
vt 1.0000 0.0000
vt 0.0000 1.0000
vt 1.0000 0.0000
vt 0.0000 1.0000
vt 0.0000 1.0000
vt 0.0000 0.0000
vt 1.0000 0.0000
vt 0.0000 0.0000
vt 1.0000 1.0000
vt 0.0000 0.0000
vt 1.0000 1.0000
vt 0.0000 1.0000
vt 1.0000 0.0000
vt 0.0000 0.0000
vt 0.0000 1.0000
vt 0.0000 0.0000
vt 0.0000 0.0000
vt 1.0000 0.0000
vt 0.0000 1.0000
vt 0.0000 0.0000
vt 0.0000 1.0000
vt 0.0000 0.0000
vt 1.0000 0.0000
vt 0.0000 1.0000
vt 0.0000 0.0000
vt 1.0000 1.0000
vt 1.0000 1.0000
vt 1.0000 1.0000
vt 1.0000 1.0000
vt 1.0000 0.0000
vt 1.0000 1.0000
vt 1.0000 1.0000
vt 1.0000 1.0000
vt 1.0000 1.0000
vt 1.0000 1.0000
vt 1.0000 1.0000
vt 1.0000 1.0000
vt 1.0000 0.0000
vt 1.0000 1.0000
vt 1.0000 1.0000
vt 1.0000 1.0000
vt 1.0000 1.0000
vt 1.0000 1.0000
vt 1.0000 0.0000
vt 1.0000 1.0000
vt 1.0000 0.0000
vt 1.0000 1.0000
vt 1.0000 1.0000
vt 1.0000 0.0000
vt 1.0000 1.0000
vt 1.0000 1.0000
vt 1.0000 1.0000
vt 1.0000 0.0000
vt 1.0000 1.0000
vt 1.0000 1.0000
vt 1.0000 0.0000
vt 1.0000 0.0000
vt 1.0000 1.0000
vt 1.0000 1.0000
vt 1.0000 1.0000
vt 1.0000 1.0000
vn 0.0000 -1.0000 0.0000
vn -1.0000 0.0000 -0.0000
vn -0.0000 0.0000 1.0000
vn 0.0000 -0.0000 -1.0000
vn 1.0000 0.0000 0.0000
vn 0.0000 1.0000 0.0000
s off
f 38/1/1 15/2/1 42/3/1
f 40/4/2 52/5/2 7/6/2
f 14/7/3 18/8/3 24/9/3
f 40/4/2 19/10/2 44/11/2
f 21/12/4 8/13/4 20/14/4
f 37/15/5 20/14/5 43/16/5
f 16/17/4 21/18/4 23/19/4
f 5/20/3 22/21/3 17/22/3
f 8/23/6 47/24/6 39/25/6
f 41/26/1 4/27/1 37/28/1
f 7/29/4 23/30/4 19/31/4
f 11/32/3 24/33/3 22/34/3
f 47/35/6 16/36/6 48/37/6
f 19/38/4 15/2/4 3/39/4
f 17/40/3 9/41/3 1/42/3
f 39/25/5 20/43/5 8/44/5
f 10/45/4 20/43/4 4/27/4
f 44/46/2 3/47/2 38/48/2
f 24/49/3 2/50/3 13/51/3
f 46/52/1 21/18/1 45/53/1
f 36/54/5 13/55/5 32/56/5
f 9/57/2 35/58/2 30/59/2
f 26/60/4 36/61/4 32/56/4
f 44/46/1 36/61/1 34/62/1
f 22/34/1 36/63/1 35/58/1
f 18/64/2 26/65/2 2/66/2
f 17/40/5 27/67/5 5/68/5
f 11/69/6 31/70/6 14/71/6
f 1/42/1 30/72/1 25/73/1
f 27/74/6 11/75/6 5/68/6
f 17/22/5 25/76/5 33/77/5
f 6/78/2 34/79/2 18/80/2
f 6/78/2 55/81/2 28/82/2
f 13/51/1 26/83/1 32/84/1
f 23/85/5 42/86/5 15/87/5
f 41/26/2 21/18/2 10/45/2
f 35/88/1 46/89/1 45/90/1
f 44/46/3 42/86/3 46/91/3
f 27/92/5 43/93/5 39/94/5
f 47/95/6 31/96/6 29/97/6
f 43/16/3 41/98/3 37/99/3
f 39/100/6 29/101/6 27/92/6
f 33/102/4 30/103/4 35/88/4
f 28/104/2 44/105/2 34/62/2
f 28/104/2 51/106/2 40/107/2
f 43/108/1 35/58/1 45/53/1
f 56/109/6 52/110/6 51/106/6
f 49/111/6 55/112/6 50/113/6
f 56/114/6 55/81/6 54/115/6
f 7/29/4 53/116/4 16/117/4
f 14/7/3 50/113/3 6/118/3
f 48/119/5 54/120/5 31/121/5
f 16/17/5 56/122/5 48/123/5
f 31/124/5 49/125/5 14/126/5
f 38/1/1 3/127/1 15/2/1
f 40/4/2 51/128/2 52/5/2
f 14/7/3 6/129/3 18/8/3
f 40/4/2 7/130/2 19/10/2
f 21/12/4 12/131/4 8/13/4
f 37/15/5 4/132/5 20/14/5
f 16/17/4 12/133/4 21/18/4
f 5/20/3 11/134/3 22/21/3
f 8/23/6 12/133/6 47/24/6
f 41/26/1 10/135/1 4/27/1
f 7/29/4 16/36/4 23/30/4
f 11/32/3 14/136/3 24/33/3
f 47/35/6 12/131/6 16/36/6
f 19/38/4 23/137/4 15/2/4
f 17/40/3 22/138/3 9/41/3
f 39/25/5 43/108/5 20/43/5
f 10/45/4 21/139/4 20/43/4
f 44/46/2 19/140/2 3/47/2
f 24/49/3 18/141/3 2/50/3
f 46/52/1 23/137/1 21/18/1
f 36/54/5 24/142/5 13/55/5
f 9/57/2 22/138/2 35/58/2
f 26/60/4 34/143/4 36/61/4
f 44/46/1 46/89/1 36/61/1
f 22/34/1 24/49/1 36/63/1
f 18/64/2 34/143/2 26/65/2
f 17/40/5 33/144/5 27/67/5
f 11/69/6 29/145/6 31/70/6
f 1/42/1 9/57/1 30/72/1
f 27/74/6 29/146/6 11/75/6
f 17/22/5 1/147/5 25/76/5
f 6/78/2 28/148/2 34/79/2
f 6/78/2 50/149/2 55/81/2
f 13/51/1 2/150/1 26/83/1
f 23/85/5 46/89/5 42/86/5
f 41/26/2 45/151/2 21/18/2
f 35/88/1 36/54/1 46/89/1
f 44/46/3 38/152/3 42/86/3
f 27/92/5 33/102/5 43/93/5
f 47/95/6 48/153/6 31/96/6
f 43/16/3 45/154/3 41/98/3
f 39/100/6 47/155/6 29/101/6
f 33/102/4 25/76/4 30/103/4
f 28/104/2 40/156/2 44/105/2
f 28/104/2 55/112/2 51/106/2
f 43/108/1 33/144/1 35/58/1
f 56/109/6 53/157/6 52/110/6
f 49/111/6 54/158/6 55/112/6
f 56/114/6 51/128/6 55/81/6
f 7/29/4 52/110/4 53/116/4
f 14/7/3 49/159/3 50/113/3
f 48/119/5 56/160/5 54/120/5
f 16/17/5 53/161/5 56/122/5
f 31/124/5 54/162/5 49/125/5
