# Blender v2.78 (sub 0) OBJ File: 'Stove.blend'
# www.blender.org
o Cube
v -1.000000 0.000000 -1.000000
v 0.780230 0.000000 -1.000000
v 0.780230 0.000000 1.000000
v -1.000000 0.000000 1.000000
v -1.000000 1.482214 -1.000000
v 0.780231 1.482214 -0.999999
v 0.780230 1.482214 1.000000
v -1.000000 1.482214 1.000000
v 0.780230 0.129191 -0.825678
v 0.780230 0.129191 0.825678
v 0.780231 1.315828 -0.825678
v 0.780230 1.315828 0.825678
v 0.780230 1.146903 -0.825678
v 0.780230 1.146903 0.825678
v 0.780230 1.146903 0.575678
v 0.780230 1.146903 -0.575678
v 0.780231 1.315828 -0.575678
v 0.780230 1.315828 0.575678
v 0.868819 1.146903 0.575678
v 0.868820 1.146903 -0.575678
v 0.868820 1.315828 -0.575678
v 0.868819 1.315828 0.575678
v 0.963726 0.129191 -0.825678
v 0.963726 0.129191 0.825678
v 0.963726 1.146903 -0.825678
v 0.963726 1.146903 0.825678
v 0.180230 1.579129 0.250000
v 0.430230 1.579129 0.750000
v 0.430230 1.579129 0.250000
v 0.180230 1.579129 0.750000
v 0.430230 1.482214 0.250000
v 0.430230 1.482214 0.750000
v 0.180230 1.482214 0.750000
v 0.180230 1.482214 0.250000
v 0.430231 1.482214 -0.749999
v 0.430231 1.482214 -0.249999
v 0.180230 1.482214 -0.249999
v 0.180230 1.482214 -0.749999
v -0.650000 1.482214 -0.750000
v -0.649999 1.482214 -0.250000
v -0.399999 1.482214 -0.250000
v -0.399999 1.482214 -0.750000
v -0.650000 1.482214 0.250000
v -0.650000 1.482214 0.750000
v -0.399999 1.482214 0.750000
v -0.399999 1.482214 0.250000
v 0.430231 1.579129 -0.749999
v 0.430231 1.579129 -0.249999
v 0.180230 1.579129 -0.249999
v 0.180230 1.579129 -0.749999
v -0.650000 1.579129 -0.750000
v -0.649999 1.579129 -0.250000
v -0.399999 1.579129 -0.250000
v -0.399999 1.579129 -0.750000
v -0.650000 1.579129 0.250000
v -0.650000 1.579129 0.750000
v -0.399999 1.579129 0.750000
v -0.399999 1.579129 0.250000
vt 0.0762 0.7893
vt 0.0001 0.1980
vt 0.0936 0.5308
vt 0.1321 0.6408
vt 0.2226 0.6698
vt 0.1752 0.9999
vt 0.1985 0.7443
vt 0.0589 0.1528
vt 0.2121 0.5205
vt 0.0557 0.0001
vt 0.1944 0.1930
vt 0.1944 0.8178
vt 0.2428 0.1789
vt 0.3660 0.1615
vt 0.3519 0.1841
vt 0.3599 0.1967
vt 0.4111 0.0266
vt 0.2541 0.1313
vt 0.2457 0.0208
vt 0.2228 0.1691
vt 0.2345 0.1615
vt 0.4524 0.1613
vt 0.4330 0.0001
vt 0.2229 0.1597
vt 0.2228 0.0001
vt 0.4189 0.1383
vt 0.2412 0.3339
vt 0.3006 0.3456
vt 0.2228 0.3456
vt 0.2414 0.3097
vt 0.2292 0.2962
vt 0.2848 0.3071
vt 0.2969 0.2966
vt 0.2848 0.2079
vt 0.2292 0.1969
vt 0.2969 0.1973
vt 0.2412 0.2347
vt 0.3006 0.2464
vt 0.2228 0.2464
vt 0.2414 0.2105
vt 0.3786 0.1969
vt 0.3192 0.2086
vt 0.3008 0.1969
vt 0.3072 0.2464
vt 0.3628 0.2354
vt 0.3749 0.2460
vt 0.3194 0.2328
vt 0.2228 0.2466
vt 0.2414 0.2825
vt 0.2292 0.2960
vt 0.2848 0.2851
vt 0.3006 0.2466
vt 0.2969 0.2956
vt 0.2412 0.2583
vt 0.2825 0.3311
vt 0.2825 0.2611
vt 0.3605 0.2115
vt 0.2825 0.2318
vt 0.3792 0.1716
vt 0.2375 0.1876
vn 0.0000 -1.0000 0.0000
vn 0.0000 1.0000 0.0000
vn 0.0000 -0.0000 -1.0000
vn 1.0000 0.0000 0.0000
vn -0.0000 -0.0000 1.0000
vn -1.0000 0.0000 -0.0000
s off
f 1/1/1 3/2/1 4/3/1
f 8/4/2 6/5/2 5/6/2
f 5/6/3 2/7/3 1/1/3
f 6/5/4 12/8/4 11/9/4
f 7/10/5 4/3/5 3/2/5
f 1/1/6 8/4/6 5/6/6
f 11/9/4 10/11/4 9/12/4
f 3/2/4 12/8/4 7/10/4
f 2/7/4 11/9/4 9/12/4
f 2/7/4 10/11/4 3/2/4
f 22/13/4 20/14/4 21/15/4
f 20/14/3 17/16/3 21/15/3
f 23/17/4 26/18/4 24/19/4
f 22/13/5 15/20/5 19/21/5
f 17/16/2 22/13/2 21/15/2
f 13/22/3 23/17/3 9/23/3
f 24/19/5 14/24/5 10/25/5
f 14/24/2 25/26/2 13/22/2
f 9/23/1 24/19/1 10/25/1
f 30/27/6 34/28/6 33/29/6
f 28/30/5 33/29/5 32/31/5
f 29/32/4 32/31/4 31/33/4
f 34/28/3 29/32/3 31/33/3
f 47/34/4 36/35/4 35/36/4
f 49/37/6 38/38/6 37/39/6
f 48/40/5 37/39/5 36/35/5
f 38/38/3 47/34/3 35/36/3
f 42/41/4 53/42/4 41/43/4
f 40/44/6 51/45/6 39/46/6
f 51/45/3 42/41/3 39/46/3
f 41/43/5 52/47/5 40/44/5
f 45/48/5 56/49/5 44/50/5
f 55/51/3 46/52/3 43/53/3
f 44/50/6 55/51/6 43/53/6
f 46/52/4 57/54/4 45/48/4
f 27/55/2 28/30/2 29/32/2
f 56/49/2 58/56/2 55/51/2
f 52/47/2 54/57/2 51/45/2
f 50/58/2 48/40/2 47/34/2
f 1/1/1 2/7/1 3/2/1
f 8/4/2 7/10/2 6/5/2
f 5/6/3 6/5/3 2/7/3
f 6/5/4 7/10/4 12/8/4
f 7/10/5 8/4/5 4/3/5
f 1/1/6 4/3/6 8/4/6
f 11/9/4 12/8/4 10/11/4
f 3/2/4 10/11/4 12/8/4
f 2/7/4 6/5/4 11/9/4
f 2/7/4 9/12/4 10/11/4
f 22/13/4 19/21/4 20/14/4
f 20/14/3 16/59/3 17/16/3
f 23/17/4 25/26/4 26/18/4
f 22/13/5 18/60/5 15/20/5
f 17/16/2 18/60/2 22/13/2
f 13/22/3 25/26/3 23/17/3
f 24/19/5 26/18/5 14/24/5
f 14/24/2 26/18/2 25/26/2
f 9/23/1 23/17/1 24/19/1
f 30/27/6 27/55/6 34/28/6
f 28/30/5 30/27/5 33/29/5
f 29/32/4 28/30/4 32/31/4
f 34/28/3 27/55/3 29/32/3
f 47/34/4 48/40/4 36/35/4
f 49/37/6 50/58/6 38/38/6
f 48/40/5 49/37/5 37/39/5
f 38/38/3 50/58/3 47/34/3
f 42/41/4 54/57/4 53/42/4
f 40/44/6 52/47/6 51/45/6
f 51/45/3 54/57/3 42/41/3
f 41/43/5 53/42/5 52/47/5
f 45/48/5 57/54/5 56/49/5
f 55/51/3 58/56/3 46/52/3
f 44/50/6 56/49/6 55/51/6
f 46/52/4 58/56/4 57/54/4
f 27/55/2 30/27/2 28/30/2
f 56/49/2 57/54/2 58/56/2
f 52/47/2 53/42/2 54/57/2
f 50/58/2 49/37/2 48/40/2
l 11 17
l 12 18
