# Blender v2.78 (sub 0) OBJ File: ''
# www.blender.org
o Cube
v -0.500000 0.001177 0.500000
v -0.500000 0.001177 -0.500000
v -0.500000 0.001177 0.375000
v -0.500000 0.001177 -0.375000
v -0.375000 0.001177 -0.500000
v -0.375000 0.001177 0.500000
v -0.375000 0.001177 0.375000
v -0.375000 0.001177 -0.375000
v -0.375000 0.677890 -0.499999
v -0.500000 0.677890 -0.500000
v -0.375000 0.677890 0.500000
v -0.500000 0.677890 0.500000
v -0.375000 0.677890 0.375000
v -0.375000 0.635596 -0.375000
v -0.500000 0.635596 -0.500000
v -0.500000 0.635596 0.500000
v -0.375000 0.635596 0.500000
v -0.500000 0.635596 0.375000
v -0.375000 0.635596 0.375000
v -0.375000 0.635596 -0.500000
v 0.500000 0.001177 0.500000
v 0.500000 0.001177 -0.500000
v 0.500000 0.001177 0.375000
v 0.500000 0.001177 -0.375000
v 0.375000 0.001177 -0.500000
v 0.375000 0.001177 0.500000
v 0.375000 0.001177 0.375000
v 0.375000 0.001177 -0.375000
v 0.375000 0.677890 -0.499999
v 0.500000 0.677890 -0.500000
v 0.375000 0.677890 0.500000
v 0.500000 0.677890 0.500000
v 0.500000 0.677890 -0.375000
v 0.500000 0.677890 0.375000
v 0.375000 0.677890 0.375000
v 0.375000 0.677890 -0.375000
v 0.375000 0.635596 -0.375000
v 0.500000 0.635596 -0.500000
v 0.500000 0.635596 -0.375000
v 0.500000 0.635596 0.500000
v 0.375000 0.635596 0.500000
v 0.500000 0.635596 0.375000
v 0.375000 0.635596 0.375000
v 0.375000 0.635596 -0.500000
v -0.500000 0.677890 0.375000
v -0.500000 0.677890 -0.375000
v -0.375000 0.677890 -0.375000
v -0.500000 0.635596 -0.375000
vt 0.1395 0.0003
vt 0.1741 0.0349
vt 0.1395 0.0349
vt 0.4877 0.9191
vt 0.4530 0.9571
vt 0.4530 0.9160
vt 0.4182 0.0351
vt 0.4531 0.0003
vt 0.4531 0.0351
vt 0.2067 0.9121
vt 0.2324 0.9721
vt 0.2081 0.9571
vt 0.9376 0.1276
vt 0.7308 0.1859
vt 0.7308 0.1276
vt 0.7652 0.4805
vt 0.7308 0.4222
vt 0.7652 0.4222
vt 0.1804 0.9683
vt 0.1741 0.9140
vt 0.4317 0.9721
vt 0.4182 0.9190
vt 0.7308 0.3633
vt 0.7652 0.4216
vt 0.7308 0.4216
vt 0.7308 0.3038
vt 0.7652 0.2454
vt 0.7652 0.3038
vt 0.7308 0.5989
vt 0.7652 0.6573
vt 0.7308 0.6573
vt 0.2088 0.0349
vt 0.2430 0.9147
vt 0.2777 0.9147
vt 0.2434 0.0349
vt 0.2781 0.0349
vt 0.1395 0.9140
vt 0.9727 0.8752
vt 0.9382 0.0003
vt 0.9727 0.0003
vt 0.4879 0.0351
vt 0.5225 0.9191
vt 0.9376 0.0931
vt 0.4743 0.9721
vt 0.4530 0.9934
vt 0.1042 0.0349
vt 0.1389 0.0003
vt 0.1389 0.0349
vt 0.3480 0.9548
vt 0.3134 0.9168
vt 0.3480 0.9137
vt 0.3481 0.0350
vt 0.3829 0.0003
vt 0.3829 0.0350
vt 0.0713 0.9121
vt 0.0456 0.9720
vt 0.0350 0.9147
vt 0.5233 0.2078
vt 0.7302 0.2661
vt 0.5233 0.2661
vt 0.7652 0.5400
vt 0.7308 0.5984
vt 0.7308 0.5400
vt 0.0976 0.9683
vt 0.1039 0.9140
vt 0.3827 0.9168
vt 0.7308 0.3627
vt 0.7652 0.3043
vt 0.7652 0.3627
vt 0.7308 0.5394
vt 0.7652 0.4811
vt 0.7652 0.5394
vt 0.7308 0.2448
vt 0.7652 0.1865
vt 0.7652 0.2448
vt 0.0696 0.0349
vt 0.0350 0.0349
vt 0.0004 0.9147
vt 0.0003 0.0349
vt 0.1386 0.9140
vt 0.4176 0.0351
vt 0.3134 0.0350
vt 0.2787 0.9168
vt 0.2787 0.0350
vt 0.7302 0.3006
vt 0.5233 0.3589
vt 0.7302 0.3934
vt 0.5233 0.3934
vt 0.5233 0.3006
vt 0.3480 0.9910
vt 0.3693 0.9698
vt 0.0735 0.9997
vt 0.9376 0.0003
vt 0.7308 0.0348
vt 0.7308 0.0003
vt 0.7308 0.0931
vt 0.5233 0.6146
vt 0.7302 0.5802
vt 0.7302 0.6146
vt 0.7302 0.6730
vt 0.5233 0.6730
vt 0.5233 0.7075
vt 0.7302 0.7075
vt 0.5233 0.7658
vt 0.5233 0.3940
vt 0.7302 0.4523
vt 0.7302 0.3940
vt 0.5233 0.4868
vt 0.7302 0.4868
vt 0.5233 0.5796
vt 0.7302 0.5451
vt 0.7302 0.5796
vt 0.5233 0.2072
vt 0.7302 0.0003
vt 0.7302 0.2072
vt 0.1741 0.0003
vt 0.4182 0.0003
vt 0.9376 0.1859
vt 0.7308 0.4805
vt 0.7652 0.3633
vt 0.7308 0.2454
vt 0.7652 0.5989
vt 0.9382 0.8752
vt 0.5227 0.0351
vt 0.2045 0.9997
vt 0.1043 0.0003
vt 0.3268 0.9697
vt 0.3482 0.0003
vt 0.0699 0.9570
vt 0.7302 0.2078
vt 0.7652 0.5984
vt 0.7308 0.3043
vt 0.7308 0.4811
vt 0.7308 0.1865
vt 0.4174 0.9168
vt 0.7302 0.3589
vt 0.9376 0.0348
vt 0.5233 0.5802
vt 0.7302 0.7658
vt 0.5233 0.4523
vt 0.5233 0.5451
vt 0.5233 0.0003
vn 0.0000 -1.0000 0.0000
vn -1.0000 -0.0000 -0.0000
vn 0.0000 0.0000 1.0000
vn 1.0000 0.0000 0.0000
vn 0.0000 0.0000 -1.0000
vn 0.0000 1.0000 0.0000
s off
f 6/1/1 3/2/1 7/3/1
f 48/4/2 10/5/2 15/6/2
f 5/7/1 4/8/1 2/9/1
f 16/10/3 11/11/3 12/12/3
f 14/13/4 13/14/4 19/15/4
f 47/16/3 48/17/3 14/18/3
f 16/10/2 45/19/2 18/20/2
f 15/6/5 9/21/5 20/22/5
f 14/23/4 9/24/4 47/25/4
f 13/26/5 18/27/5 45/28/5
f 17/29/4 13/30/4 11/31/4
f 1/32/3 17/33/3 16/10/3
f 1/32/2 18/20/2 3/2/2
f 19/34/4 6/35/4 7/36/4
f 3/2/5 19/37/5 7/3/5
f 20/38/4 8/39/4 5/40/4
f 4/41/3 14/42/3 48/4/3
f 4/41/2 15/6/2 2/9/2
f 2/9/5 20/22/5 5/7/5
f 19/15/1 48/43/1 14/13/1
f 9/21/6 46/44/6 47/45/6
f 11/11/6 45/19/6 12/12/6
f 23/46/1 26/47/1 27/48/1
f 30/49/4 39/50/4 38/51/4
f 22/52/1 28/53/1 25/54/1
f 40/55/3 31/56/3 41/57/3
f 35/58/2 37/59/2 43/60/2
f 39/61/3 36/62/3 37/63/3
f 34/64/4 40/55/4 42/65/4
f 44/66/5 30/49/5 38/51/5
f 29/67/2 37/68/2 36/69/2
f 34/70/5 43/71/5 35/72/5
f 35/73/2 41/74/2 31/75/2
f 21/76/3 41/57/3 26/77/3
f 42/65/4 21/76/4 23/46/4
f 26/77/2 43/78/2 27/79/2
f 23/46/5 43/80/5 42/65/5
f 28/81/2 44/66/2 25/54/2
f 24/82/3 37/83/3 28/84/3
f 38/51/4 24/82/4 22/52/4
f 44/66/5 22/52/5 25/54/5
f 39/85/1 43/60/1 37/59/1
f 34/86/6 36/87/6 35/88/6
f 39/85/4 34/86/4 42/89/4
f 36/90/6 30/49/6 29/91/6
f 31/56/6 34/64/6 35/92/6
f 47/93/6 45/94/6 13/95/6
f 45/94/2 48/43/2 18/96/2
f 9/97/6 36/98/6 29/99/6
f 9/97/5 44/100/5 20/101/5
f 14/102/1 44/100/1 37/103/1
f 37/103/3 47/104/3 14/102/3
f 13/105/3 43/106/3 35/107/3
f 17/108/1 43/106/1 41/109/1
f 13/110/6 31/111/6 35/112/6
f 31/111/3 17/108/3 41/109/3
f 47/113/6 35/114/6 36/115/6
f 6/1/1 1/116/1 3/2/1
f 48/4/2 46/44/2 10/5/2
f 5/7/1 8/117/1 4/8/1
f 16/10/3 17/33/3 11/11/3
f 14/13/4 47/118/4 13/14/4
f 47/16/3 46/119/3 48/17/3
f 16/10/2 12/12/2 45/19/2
f 15/6/5 10/5/5 9/21/5
f 14/23/4 20/120/4 9/24/4
f 13/26/5 19/121/5 18/27/5
f 17/29/4 19/122/4 13/30/4
f 1/32/3 6/35/3 17/33/3
f 1/32/2 16/10/2 18/20/2
f 19/34/4 17/33/4 6/35/4
f 3/2/5 18/20/5 19/37/5
f 20/38/4 14/123/4 8/39/4
f 4/41/3 8/124/3 14/42/3
f 4/41/2 48/4/2 15/6/2
f 2/9/5 15/6/5 20/22/5
f 19/15/1 18/96/1 48/43/1
f 9/21/6 10/5/6 46/44/6
f 11/11/6 13/125/6 45/19/6
f 23/46/1 21/126/1 26/47/1
f 30/49/4 33/127/4 39/50/4
f 22/52/1 24/128/1 28/53/1
f 40/55/3 32/129/3 31/56/3
f 35/58/2 36/130/2 37/59/2
f 39/61/3 33/131/3 36/62/3
f 34/64/4 32/129/4 40/55/4
f 44/66/5 29/91/5 30/49/5
f 29/67/2 44/132/2 37/68/2
f 34/70/5 42/133/5 43/71/5
f 35/73/2 43/134/2 41/74/2
f 21/76/3 40/55/3 41/57/3
f 42/65/4 40/55/4 21/76/4
f 26/77/2 41/57/2 43/78/2
f 23/46/5 27/48/5 43/80/5
f 28/81/2 37/135/2 44/66/2
f 24/82/3 39/50/3 37/83/3
f 38/51/4 39/50/4 24/82/4
f 44/66/5 38/51/5 22/52/5
f 39/85/1 42/89/1 43/60/1
f 34/86/6 33/136/6 36/87/6
f 39/85/4 33/136/4 34/86/4
f 36/90/6 33/127/6 30/49/6
f 31/56/6 32/129/6 34/64/6
f 47/93/6 46/137/6 45/94/6
f 45/94/2 46/137/2 48/43/2
f 9/97/6 47/138/6 36/98/6
f 9/97/5 29/99/5 44/100/5
f 14/102/1 20/101/1 44/100/1
f 37/103/3 36/139/3 47/104/3
f 13/105/3 19/140/3 43/106/3
f 17/108/1 19/140/1 43/106/1
f 13/110/6 11/141/6 31/111/6
f 31/111/3 11/141/3 17/108/3
f 47/113/6 13/142/6 35/114/6
